<svg xmlns="http://www.w3.org/2000/svg" viewBox="0 0 58.19 75.65"><defs><style>.cls-1{fill:#c0c0f4;}.cls-2{fill:#8e8ec9;}.cls-3{fill:#ff265b;}.cls-4{fill:#fff;}.cls-5{fill:#eae8fc;}.cls-6{fill:#006557;}.cls-7{fill:#008a2b;}.cls-8{fill:#7fda6d;}.cls-9{fill:#42b55e;}.cls-10{fill:#493b62;}</style></defs><g id="Camada_2" data-name="Camada 2"><g id="OBJECTS"><rect class="cls-1" x="46.56" y="52.37" width="5.81" height="5.81"/><rect class="cls-2" x="46.56" y="46.55" width="5.81" height="5.83"/><rect class="cls-1" x="46.56" y="40.73" width="5.81" height="5.81"/><rect class="cls-1" x="46.56" y="34.91" width="5.81" height="5.83"/><rect class="cls-2" x="40.73" y="58.19" width="5.83" height="5.83"/><rect class="cls-3" x="40.73" y="52.37" width="5.83" height="5.81"/><rect class="cls-3" x="40.73" y="46.55" width="5.83" height="5.83"/><rect class="cls-3" x="40.73" y="40.73" width="5.83" height="5.81"/><rect class="cls-2" x="40.73" y="29.09" width="5.83" height="5.81"/><rect class="cls-2" x="34.92" y="64.01" width="5.81" height="5.81"/><rect class="cls-3" x="34.92" y="52.37" width="5.81" height="5.81"/><rect class="cls-1" x="34.92" y="23.27" width="5.81" height="5.83"/><rect class="cls-1" x="29.09" y="64.01" width="5.83" height="5.81"/><rect class="cls-3" x="29.09" y="52.37" width="5.83" height="5.81"/><rect class="cls-3" x="23.28" y="46.55" width="5.81" height="5.83"/><rect class="cls-3" x="23.28" y="40.73" width="5.81" height="5.81"/><polygon class="cls-2" points="29.09 11.64 23.28 11.64 23.28 17.45 29.09 17.45 34.92 17.45 34.92 11.64 29.09 11.64"/><rect class="cls-4" x="11.64" y="29.09" width="5.81" height="5.81"/><polygon class="cls-5" points="34.92 5.82 29.09 5.82 23.28 5.82 17.45 5.82 17.45 11.64 23.28 11.64 29.09 11.64 34.92 11.64 40.73 11.64 40.73 5.82 34.92 5.82"/><polygon class="cls-5" points="34.92 23.27 34.92 17.45 29.09 17.45 23.28 17.45 23.28 23.27 17.45 23.27 17.45 29.09 17.45 34.91 23.28 34.91 29.09 34.91 34.92 34.91 40.73 34.91 40.73 29.09 34.92 29.09 34.92 23.27"/><polygon class="cls-5" points="17.45 64.01 17.45 69.83 23.28 69.83 29.09 69.83 29.09 64.01 23.28 64.01 17.45 64.01"/><rect class="cls-5" x="11.64" y="58.19" width="5.81" height="5.83"/><polygon class="cls-5" points="11.64 46.55 5.82 46.55 5.82 52.37 5.82 58.19 11.64 58.19 11.64 52.37 11.64 46.55"/><rect class="cls-4" x="5.81" y="40.73" width="5.83" height="5.81"/><rect class="cls-4" x="5.81" y="34.91" width="5.83" height="5.83"/><rect class="cls-4" x="5.81" y="29.09" width="5.83" height="5.81"/><rect class="cls-3" x="40.73" y="52.37" width="5.83" height="5.81"/><rect class="cls-3" x="40.73" y="46.55" width="5.83" height="5.83"/><rect class="cls-3" x="34.92" y="52.37" width="5.81" height="5.81"/><polygon class="cls-6" points="40.73 46.55 40.73 52.37 40.73 58.19 46.56 58.19 46.56 52.37 46.56 46.55 40.73 46.55"/><rect class="cls-7" x="40.73" y="40.73" width="5.83" height="5.81"/><rect class="cls-7" x="40.73" y="34.91" width="5.83" height="5.83"/><rect class="cls-6" x="34.92" y="58.19" width="5.81" height="5.83"/><rect class="cls-6" x="34.92" y="40.73" width="5.81" height="5.81"/><rect class="cls-6" x="29.09" y="58.19" width="5.83" height="5.83"/><polygon class="cls-7" points="34.92 46.55 34.92 52.37 29.09 52.37 23.28 52.37 23.28 58.19 23.28 64.01 29.09 64.01 29.09 58.19 34.92 58.19 40.73 58.19 40.73 52.37 40.73 46.55 34.92 46.55"/><rect class="cls-4" x="17.45" y="5.81" width="5.83" height="5.83"/><rect class="cls-8" x="11.64" y="46.55" width="5.81" height="5.83"/><rect class="cls-8" x="11.64" y="40.73" width="5.81" height="5.81"/><polygon class="cls-9" points="34.92 34.91 29.09 34.91 23.28 34.91 17.45 34.91 11.64 34.91 11.64 40.73 17.45 40.73 17.45 46.55 17.45 52.37 11.64 52.37 11.64 58.19 17.45 58.19 17.45 64.01 23.28 64.01 23.28 58.19 23.28 52.37 29.09 52.37 34.92 52.37 34.92 46.55 34.92 40.73 40.73 40.73 40.73 34.91 34.92 34.91"/><rect class="cls-4" x="11.64" y="29.09" width="5.81" height="5.81"/><rect class="cls-4" x="5.81" y="34.91" width="5.83" height="5.83"/><rect class="cls-4" x="5.81" y="29.09" width="5.83" height="5.81"/><polygon class="cls-10" points="52.37 34.91 52.37 40.73 52.37 46.55 52.37 52.37 52.37 58.19 58.19 58.19 58.19 52.37 58.19 46.55 58.19 40.73 58.19 34.91 52.37 34.91"/><rect class="cls-10" x="46.56" y="58.19" width="5.81" height="5.83"/><rect class="cls-10" x="46.56" y="29.09" width="5.81" height="5.81"/><rect class="cls-10" x="40.73" y="64.01" width="5.83" height="5.81"/><rect class="cls-10" x="40.73" y="23.27" width="5.83" height="5.83"/><rect class="cls-10" x="40.73" y="5.81" width="5.83" height="5.83"/><polygon class="cls-10" points="34.92 17.45 34.92 23.27 40.73 23.27 40.73 17.45 40.73 11.64 34.92 11.64 34.92 17.45"/><polygon class="cls-10" points="29.09 69.83 23.28 69.83 17.45 69.83 17.45 75.65 23.28 75.65 29.09 75.65 34.92 75.65 40.73 75.65 40.73 69.83 34.92 69.83 29.09 69.83"/><polygon class="cls-10" points="29.09 5.82 34.92 5.82 40.73 5.82 40.73 0 34.92 0 29.09 0 23.28 0 17.45 0 17.45 5.82 23.28 5.82 29.09 5.82"/><polygon class="cls-10" points="23.28 17.45 23.28 11.64 17.45 11.64 17.45 17.45 17.45 23.27 23.28 23.27 23.28 17.45"/><rect class="cls-10" x="11.64" y="64.01" width="5.81" height="5.81"/><polygon class="cls-10" points="17.45 29.09 17.45 23.27 11.64 23.27 5.82 23.27 5.82 29.09 11.64 29.09 17.45 29.09"/><rect class="cls-10" x="11.64" y="5.81" width="5.81" height="5.83"/><rect class="cls-10" x="5.81" y="58.19" width="5.83" height="5.83"/><polygon class="cls-10" points="5.82 46.55 5.82 40.73 5.82 34.91 5.82 29.09 0 29.09 0 34.91 0 40.73 0 46.55 0 52.37 0 58.19 5.82 58.19 5.82 52.37 5.82 46.55"/></g></g></svg>