<svg xmlns="http://www.w3.org/2000/svg" viewBox="0 0 2963 1446.12"><defs><style>.cls-1{fill:#0a1026;}</style></defs><g id="Camada_2" data-name="Camada 2"><g id="Layer_1" data-name="Layer 1"><path class="cls-1" d="M2963,459.13V0H0V380.12c7-.2,14-1.27,20.77.78v19H0v19.75c6.84-.11,13.69-.45,20.52-.26s13.53-1.19,20,1v19H0V557.9c6.86-.11,13.74-.48,20.59-.26,6.68.22,13.55-1.35,21,1.52v37.5l19.6.94v19.46l-39.81-.52V577.65H0v59.26c7-.19,14-1.27,20.77.79v19H0v59.26c7-.19,14-1.26,20.77.79v19H0v19.75H21.68v58.09l20.5,2q-.51,13.14-1,26.28c-.14,3.8-.26,7.61-.39,11.58l-18.52.94V874h19V892.8L60.91,894v10.66c0,19.39-.06,38.79.05,58.19a104.35,104.35,0,0,0,1,10.4c12.57-1.74,25.09-.56,37.81-.82v19.15l-18.55,1.13v18.78l19.15.94c0,16.86-.08,32.58,0,48.3,0,3.81.73,7.61,1.14,11.42,6-1.67,11.91-1.27,18.74-.13v18.1h19.7v-38.29l18.87-.87c.65-6.68,1.2-12.4,1.76-18.12l-20.31-2c-.31-6.17-.6-12-.92-18.32L121,1011.32V972.63h19.17c-.22-6.39-.43-12.78-.68-20.07H80.56V874.08l-18.9-.93v-38.4H100c.32,6.6.62,12.62.91,18.66l19.82,1q-.12-38.76-.2-77.52c0-.51.73-1,1.79-2.43h17c.45-6.9.84-13,1.23-19h18.69c.34,6.83.64,12.86,1,19.37,6.1,0,11,0,15.9,0q21.69.25,43.39.56c-.38-6.47-.77-12.93-1.21-20.34H180.1V735.15h38.22c.44-6.95.82-13,1.2-18.93h18.63c1.45,13.11-.5,25.87,1.35,39.32h38.07v18.79l-18.88,1.11v39.41l20.61.76c-1.84,6-1.47,11.92-.05,18.76h18.29c.33,6.92.62,12.93.9,18.83h18.77c.37-6.62.7-12.63,1.09-19.56l20.15,1.67c-1.67,6-1.27,11.88-.06,19h37.8c.73,7.59,1.35,13.95,2,20.3,12.56-2.09,25.08-.62,37.65-.9v19.16l-18.41,1v19.29h18.29v39l-18.14.91v18.58h38.19c.37-6.68.71-12.71,1-18.49h19.77c-.38-6.47-.76-12.94-1.2-20.33H436.86V913.5l18.51-.82c.43-6.63.82-12.67,1.27-19.58h38.25c.43-7,.8-13,1.22-19.9H515.6V834.84h39.32V853.4l19.8,1.06v39.15l-19.77,0c-.07,9.82-.3,19.65-.16,29.47.13,9.66-.81,19.39.76,29.9h19.34v39.37h19.58V933.69h19.85v18h19.87V932.65h39.06c0-4.45,0-8,0-11.5q.24-33.37.5-66.76h19.53v39.22H713V853.46h38.87c.32-7.09.59-12.88.87-18.8h19c.85,26.24-.28,52,.67,78.74h39.15v19.48h10.54c15.13,0,30.27-.07,45.41,0,14.46.09,28.92.36,43.38.55-.38-6.46-.77-12.92-1.23-20.66h-39.2V853.55c-6.71.49-12.45.91-18.21,1.31-.69-6.65-1.38-13.31-2.15-20.84H812.18V813.83H831.7V794.38h18.64V735.09l-18,1.12c-2-6.63-1.24-13.25-.25-20.79H870V695.54H832.1V676.77h58.52v18.29h39c.33-6.53.61-12.31.93-18.76,13.26-.26,25.84-.43,39.25.08v19.7H950.18c-.3,6.82-.56,12.83-.88,20H910.52v19.8c6.57-.16,13.13-.44,19.69-.46,6.39,0,12.79.25,18.82.38v18.9l-18.14.91v18.59h38.2c.32-6.45.6-12.23.91-18.49h39.64c-.19-6.53-.51-13.06-.55-19.6,0-6.7.22-13.41.34-19.78h19c.3,6.65.58,12.64.85,18.6l19.85,1V716.65c12.57-1.9,51-1.46,58.92.83v18.36l20.39.64c-.23,6.36-.43,12.74-.64,19.12,6.39-.5,12.8-1.48,19.8,1v18.58l-19.81,0V794l-19.07,1.21v19.62h19v18.73l20.22,1.14V814.35c13.14.34,25.73-.65,39.18.67V834.6h19.73v39.52c6.36-.55,12.74-1.37,18.92.57v38.65h-18.88c-.28,6.35-.56,12.69-.83,18.92h-18.7V913.35l-39.35.16a575.53,575.53,0,0,0-.11,58.15h38.5c.33-6.49.61-12.27.92-18.29h77.94v18.48L1245.56,973c.61,13.94,1.19,26.92,1.76,39.89l26.24-1c3.8-.15,7.6-.27,11.43-.4v-79h-38.27V892.92h18.73c.32-7,.59-12.82.89-19.47h38.44c.39-6.94.74-13,1.08-19.06l39-.95c0-4.23,0-7.75,0-11.27q.24-23.52.5-47l20.37.71a85.28,85.28,0,0,0-1.06,9.49c-.1,19.65,0,39.3-.08,58.95,0,2.83-.4,5.66-.64,8.84l-18.86,1.09v19.39h-58.63V913.5h38.76v19.61H1364v19c-19.76,1.42-39-.39-57.91,1.06v38.41h18.48c.41-6.55.79-12.59,1.16-18.58h18.76c.33,6.55.63,12.58,1,19.39h58.92l.27-39.23,39.18-.95V913.75H1463c1.23,13.13-.51,25.87,1.21,39.31h19.14v19.61H1523v18.91h38.58c.42-6.54.82-12.58,1.27-19.47h18.26V952.29h-39c.49-6.73.91-12.47,1.33-18.21-7.41-.4-14.82-.91-22.24-1.16-5.8-.19-11.61,0-17.5,0V912.69h18.48c.39-6.88.73-12.9,1.12-19.75h39.21v-38.4h19.44c0,10.09-.11,19.54,0,29,.14,9.67-.61,19.41.59,29.84h19.36V874l18.82-.83v-59h-38.14V795l38.29-.7c.38-6.81.71-12.86,1.05-18.89l20.26.67c-1.68,6-1.24,11.89-.16,18.7h19.14v39.85l19.11-1.12c.31-6.71.58-12.42.91-19.5l20.26,1.56c-1.6,6-1.41,12,.09,18.86h17.77V854.3h-38v18.88l19.43,1v19.66l18.92-1c.41-6.56.78-12.6,1.16-18.64h18.69c.36,6.52.69,12.54,1,18.59h77.68V873.33h-58V814.62l-19.45-.66V774.31l39.73,1.74q-.39,9.51-.76,19.05l58.57-.89c.33-7.05.61-12.82.88-18.51h19.68v19h19.61v40l20-1.26V815.22c15.78-1.84,51.41-1.25,59.16,1.14v37.1l19.66.93v19.47l-39.25-.52-1-18.75h-19.55v39h-39.68v19H1859V873.85H1838.6v78.22l-19.15,1.08c-.17,6.45-.44,12.9-.46,19.35s.22,12.75.36,19.88h19.58V972h19.88V933.41h19.6v38.33h19c1.47-19.74-.46-39,1.1-58h77.56v19.53h-18.27v18.86l19.5,1.05v38.35h38.62c.37-6.65.71-12.79,1-18.94l-19.23-.67c-1.92-13.19-1.39-51.73.61-58.26h38.44l-.06-19.82,19.44-1.13v-59h19.06c.39-6.93.73-13,1.07-19l18.59-.82V795.37h-39.33v18.25c-6.62.64-12.36,1.2-18.11,1.74q-.36-20-.71-40l58-.92c.66-6.75,1.22-12.46,1.78-18.16-7.43-.4-14.86-.91-22.29-1.16-5.8-.19-11.61,0-17.42,0V735.69l18.38-.81V716.19L2056.57,715V695.46h18.5V676.53l-18.57-.91c0-6.63,0-12.7,0-18.76l39.59,0v-59h19.43v58.93c6.34-.56,12.7-1.33,19.77.81v17.94l20.06,1.07V656.91h19.74c-.37-6.42-.73-12.85-1.12-19.77L2155.42,636c0-13.4,0-26,0-38.56l19.36-.91V558.22h19.1c1.21,26.32-.52,52.1,1,78.73h18.61V676.3h-18.94q0,10,0,20c6.37-.49,12.78-1.47,19.76,1v18.78c6.53-.16,13.06-.43,19.59-.45s12.75.22,19.91.36v19.85l19.71-1.09V675.52c14.33.63,27.33,1.21,40.32,1.77-.34,8.08-.71,16.15-1,24.23-.17,4.46-.23,8.92-.34,13.62l-18.65.9v19.55H2312v19.1l-18,.87v19.29c7,0,13.24-.16,19.43,0,6.79.23,13.56.79,20.33,1.2q0,9.75.1,19.5c6-1.61,11.94-1.39,18.81,0v18.17c13.48,1.41,26.23-.45,38.5,1.16v19c-26.44.44-52.21-.25-78.83.43V892.8h-58V873.27h18.48c.41-6.92.76-13,1.16-19.84h18.59v-19.1h-38.69c-.27,6.34-.55,12.69-.82,18.92h-18.7V834.34h-79.08c-.32,6.78-.61,12.8-.94,19.66H2116v19.82h18.53c.37,6.93.69,12.94,1,18.74l20.23,2c-1.69,6-1.24,11.89-.1,19.05h19.08v19.77l19.15-1.21c.3-6.82.55-12.59.85-19.53h18.87c.32-7,.58-12.77.84-18.42h19.69v18.51l19.64.91v19.73l20.08.08V913.94h19.43v19.43l39.43-.89V874.25h19.18c.31,6.59.61,12.62.9,18.66l19.83,1V873.31h39.15V814.74l19.83-.88V775.73h19.9v19h38.57c.37,7,.7,13,1.06,19.89h18.3v19.09l-19.07.85v38.26h-19.85V815.14h-19.9v18.51l-19.09.93v98.8c12.89-.89,25.73-.49,39.47-.33v19l20.13,1.14V913.5l19.43-.89V853.49h38.6V814.8l-18.37-.9V795.2h39.08V853l20.58,2.08q-.45,19.38-.89,38.76c6.38-.51,12.79-1.46,19.78.94v18.81l59.59.07q0-9.9-.08-19.8l18.69-1.08c.4-6.6.76-12.65,1.17-19.56h19c.48-20.1-.23-39.34.44-58.52l19-.85c.32-6.73.61-12.52.9-18.49h19.6V833c13.07,2,32,1.54,38.86-.73.28-5.75.57-11.57.86-17.38L2806,813.8c.41-6.56.78-12.59,1.16-18.61h19.46v38.08c7.7.77,14.09,1.41,20.46,2-1.68,6-1.24,11.9-.1,19.08h18.13v19.24c-4.26,0-7.79,0-11.32,0q-23.35.24-46.71.52l-.24,19.71h19c.39,6.6.74,12.65,1.09,18.59h18.73c.31-6.43.59-12.21.89-18.51h39.65V873.22h19.39V854.36l-19.19-1v-19h19.2V815l-20.3-1.22c.48-6.54.91-12.24,1.33-17.93-8.08-.4-16.16-.89-24.25-1.17-5.14-.17-10.29,0-15.45,0V755.43H2963V577.65l-17.34-.82V557.9H2963V518.39l-16.93.68a40.19,40.19,0,0,1-.08-20.43h17V478.88l-17.34-.82V459.13ZM40.35,359.42H22.15V340.88h18.2ZM22.22,478.87H40.28v18.76H22.22ZM40.53,537H21.7V518.84H40.53ZM60.25,300.29H41.78V281.83H60.25ZM41.93,716.22H60.08v18.49H41.93ZM60.2,813.63l-17.88,1.76c-2.43-13.24-.65-26.46-1.15-39.67h19Zm.16-118.5H42V657H60.36ZM831.7,440.61V459l-18.94,1-.57-20.54C818.43,439.15,824.75,438,831.7,440.61Zm-19,157.49c-.49-6.56-1-13.13-1.59-21.22,8.07.63,14.65,1.14,21.19,1.63-.62,6-1.25,11.91-1.87,17.84Zm-2.12-120.18h-18v-19.6L812.65,460C812,466,811.27,472,810.58,477.92Zm.45,40.75v38.27H792.52V518.67ZM812,439.2H792.28V419.8c6.29-.59,12.59-1.39,19.67.94Zm-39.1-118.38h37.81v18.81H772.85Zm-.13,79.61h19.33v19.15H772.72Zm-1.18,157.76v18.49H753V558.19Zm-.36-60.51h-58v-18.5h58ZM751.4,518.37v18.77H733.34V518.37ZM693.5,695.28V676.56c6.32-.48,12.66-1.5,18.53.69v18Zm18.37-98.82H693.79v-19.6c7.23.6,13.63,1.13,20,1.64Q712.82,587.49,711.87,596.46Zm-18.08-158V399.09c7.23.6,13.63,1.13,20,1.64q-.51,13.13-1,26.25c-.14,3.8-.25,7.61-.37,11.45Zm20.14,139.92c-.46-6.63-.92-13.26-1.39-19.93h19.27v18.17Zm17.88-197.71v18.17l-17.88,1.76c-.46-6.63-.92-13.26-1.39-19.93ZM693.48,321.2H711.9v18.4H693.48Zm-.24,355.13H672.91V715H614.66c0-6.65,0-12.73,0-18.79l38.34-.72V676.66l-18.43-1.13V636.92l18.47-.81c.33-6.71.62-12.49.92-18.56h38.47V636l-18.55,1.14v18.78l19.37.92Zm-38.56-177q-.7-9.94-1.4-19.92h19.27v18.17Zm-.16.16q-1,9-1.91,18H634.53v-19.6C641.76,498.45,648.16,499,654.52,499.49Zm-1.72,39.18v18.17l-17.88,1.75q-.69-9.95-1.39-19.92Zm21-.13h18.66v18.3H673.78Zm-1.23-138.15v18.18l-17.87,1.75c-.47-6.63-.93-13.26-1.4-19.93Zm-38-39.74h18.18v18.82H634.51Zm-19.82,39.78H634v19.15H614.69Zm0,38.39h18.5c.39-6.9.73-12.95,1.06-19l20.29.66c-.34,8.07-.7,16.14-1,24.21-.17,4.46-.24,8.91-.36,13.55H614.68ZM594.43,557.09c14.07.59,27.21,1.14,40.34,1.67-.64,6-1.27,11.93-1.93,18.14l-19.08.9v18.61c-6.92.58-12.65,1.05-18.4,1.5C593.06,584.81,594.62,571.69,594.43,557.09Zm.31,60.21c6.31-.48,12.66-1.5,18.52.69v18H594.74Zm-19.65-98.43h18.83V537H575.09ZM555.37,301.62h18.79V320H555.37ZM595.09,598.2q-.3,9.43-.61,18.87-19.25.39-38.53.75c-.51-6.56-1-13.14-1.63-21.21ZM555.72,618c-.62,6-1.24,12-1.86,18h-18.1V616.38Zm-20-257.37h18.2v18.53h-18.2Zm-19.66,316h39.24v-19.5h19.43v19.43c6.52-.17,13-.44,19.56-.46s12.75.21,20.11.35V696l-39.72.12V715l19.94,1.25v38.07l20.21,1.88c-.54,6-1.07,11.94-1.67,18.65-5.51,0-10.38-.13-15.23,0-7.41.23-14.82.65-22.25,1-.4-8.09-.9-16.17-1.18-24.27-.18-5.15,0-10.31,0-15.76l-19.26-1V696.1H515.62c-.31,6.9-.58,12.93-.84,18.83H496.42c-1.84-13.23-1.3-71.06.57-77.68h17.8C516.09,650.4,514.2,663.13,516.08,676.65Zm97.43,118.58v18.5H595v-18.5ZM476.23,755.61l18.67-1.06c.41-6.54.79-12.56,1.21-19.2,6.95,0,13.13-.06,19.31,0,6.38.07,12.75.26,19.61.41,0,7.5,0,13.64,0,19.76H514.83v18.75h-38.6Zm-20,59H436.91V795.5h19.33ZM455,774.24H417.2V736h18.62c.32,6.56.61,12.57.9,18.35l20.37,2Q456.05,765.29,455,774.24Zm2.19-18c-.5-6.67-1-13.33-1.5-20.07H476V755.4Zm19.31-238.82V498.92H514.4v18.52ZM496.16,301.3H514.5V320H496.16ZM476.28,439.81h18.59v18.46H476.28Zm18.45,137.91v18.8H456.46V577.81c6.47-.17,12.93-.44,19.39-.46S488.63,577.59,494.73,577.72Zm-57.34,79.64c-.47-6.63-.93-13.28-1.49-21.23h19.66c.32-7,.59-12.81.86-18.8H475v39c-5.59,0-10.46-.13-15.32,0C452.24,656.6,444.81,657,437.39,657.36ZM418,360.7h17.21c1.91,13.2,1.42,51.22-.71,58.25h-17C415.63,405.73,416.11,367.34,418,360.7Zm17.44,78.94v18.55H416.94V439.64Zm-37.89,98.75H417V499.08h19.45v18.55l19.72,1v58.95H436v18.85c-6.9.57-12.61,1.05-18.34,1.5q-.33-20-.65-40.09l-19.43-.67Zm19.35,118.1H397.3c-.44-7.22-.8-13.25-1.22-20.22-6.49.48-12.2.91-17.95,1.3-2.13-6.66-1.25-13.32-.34-21.24h18.49c.35-7.08.64-12.91.93-18.72l20.1.59Q417.1,627.35,416.88,656.49ZM397,597.36q-19.29.38-38.61.71c-2.15-6.63-1.17-13.26-.59-19.8,13.11-1.75,31.49-1.35,39.2,1Zm-38.79.9q-.93,9-1.86,18h-18.1v-19.6Zm-.48-79.69c6.31-.54,12.65-1.54,18.51.66v18H357.71Zm0-78.76h18.63v38H357.74ZM338.27,281.33h18.07V300.1H338.27Zm-.13,217.87h19.33v19.15H338.14Zm-1.39,59.22v18.17l-17.88,1.75q-.69-9.93-1.4-19.92Zm-38.31,177.4c6.31-.48,12.66-1.5,18.52.69v18H298.44Zm-1.39-257.88H279v-19.6c7.23.6,13.63,1.13,20,1.64Q298,469,297.05,477.94Zm.1,40.5V537.2h-18.3c0-6.65,0-12.71,0-18.76Zm1.58,58.42c7.23.6,13.62,1.13,20,1.64q-.94,9-1.9,18H298.73ZM317,458.07l-17.87,1.75c-.47-6.63-.93-13.25-1.4-19.92H317Zm0-116.62v18H298.45V340.79C304.76,340.25,311.1,339.25,317,341.45Zm-38.08-20h19.33v19.15H278.88Zm-.27,177.7v19.1l-19,.87c-.47-6.62-.94-13.24-1.42-20Zm-39.43,58.93c6.46-.16,12.92-.43,19.39-.45s12.78.24,18.88.36v18.8H239.18ZM219.75,340.59h18.07V360c-3.8,0-6.73.07-9.66,0s-5.66-.37-8.41-.55Zm-.51,99.24h18.82V458H219.24Zm-19.33,97.63h19.24V498.91h19.12c.33,6.53.64,12.55.93,18.34,7.49.75,13.89,1.38,20.25,2l-2,19H238.92v19.55h-39Zm-20,40.37c6.31-.54,12.65-1.53,18.51.66v18H179.93Zm.22-177.71H198.4V418.7H180.15ZM160.37,440H179v18.28H160.37Zm19.32,118.45v19.21l-18.8.86c-.49-6.66-1-13.32-1.49-20.07ZM140.46,360.53h18.62v18.52H140.46ZM159,518.91v18.18l-17.88,1.75c-.46-6.63-.93-13.26-1.39-19.93ZM139,557H121V537.36c7.23.6,13.62,1.13,20,1.64Q140,548,139,557Zm.57,80.47v18.41h-18.8V637.42Zm-.38-217.27v18.17l-17.87,1.75q-.7-9.94-1.4-19.92ZM79.92,636H61.4V617.3c6.31-.48,12.66-1.5,18.52.69ZM61.61,478.1V458.5H80.09c.41-6.91.77-12.94,1.2-20l39.9,1.75q-.51,13.14-1,26.28c-.14,3.8-.26,7.61-.39,11.58l-18.51.94v19.67h18.31V517.5l-19.48,1.2v38.37H80.61V479ZM81.35,715.18V676.63h19.33v39.24Zm.15-118.67V578H99.87v19.06c-4.18,0-7.12.07-10,0S84.17,596.69,81.5,596.51ZM99.84,813.64H81.18V795.33H99.84Zm1-58.39c-.32,6.83-.61,12.86-.91,19H81.33V735.72l18.52-.82c.38-6.68.72-12.74,1.05-18.79l19.69-1.29V696.36h19c.24,20,.48,39.42.71,58.89Zm39.86-139.06V576.84l20.08,1.72q-.57,13.13-1.12,26.27c-.15,3.8-.25,7.6-.38,11.36Zm38.33,80.18v18.57H159.74c-.12-19.79-.07-38.92-.05-58H179c.32,6.55.61,12.56.89,18.34l20.38,2c-.69,6-1.39,11.95-2.1,18.11Zm79.2-20.07H239c-.27,6.34-.55,12.69-.82,18.93H219.42V676.34l-19,.9c-.51-6.62-1-13.24-1.58-20.33H219.5V617.52H278c.12,13.25.53,25.8-.23,38.43l-19.55.87ZM259,715V696.09c13.16-.36,25.73-.38,39.18,0v39.53l-19.51-.66c-.34-6.62-.64-12.42-1-18.73Zm38.11,98.57-17.69,2c-.53-6.6-1.05-13.19-1.69-21.34L299,795.8ZM317,793.88l-17.87,1.75q-.71-9.95-1.4-19.92H317Zm-18.35-157V617.72H318v19.15Zm19.56,18.92V637.11c18.44-.16,36.87-.35,55.3-.43a18.37,18.37,0,0,1,4.45,1c-.62,6-1.24,12-1.88,18.08Zm39.28,119.34-19.25-.68V734.89c7.23.6,13.63,1.13,20,1.64Zm.9-38.76q-.42-10.07-.86-20.14c6.34-.86,12.66-1.42,18.74.4v18Zm-39.92-40h38.79c0,6.87,0,13.25,0,19.62l-38.8-.78Zm38,137-17.87,1.75c-.47-6.64-.94-13.27-1.4-19.93H356.5ZM396,794.06H357.71V775.37l18.67-1.07c.41-6.54.79-12.57,1.17-18.65H396Zm-18.29-98.33v-19.9h38.18c.46-7,.86-13.05,1.25-19.11,6.71.27,13.42.55,20.11.8-1.6,6-1.39,12,.07,18.85h18.28c.33,7,.62,13,.95,19.91h18.61v18.51h-38.5c-.31-6.58-.59-12.38-.91-19.06ZM397.4,834.4V815.25h19.33V834.4Zm77.53,38.66H436.77c-.4-6.54-.77-12.56-1.14-18.77l-18.66-.9V834.64l40.11.72c-1.86,6-1.43,11.9-.11,18.73h18Zm19.6-38.94c-6.73,0-12.91-.15-19.07,0s-12.17.72-18.26,1.1q-.36-10.18-.71-20.37,20,.35,40,.67C495.86,821.52,495.23,827.47,494.53,834.12Zm24.38-19.73c-7.42.24-14.84.65-22.26,1-.49-6.58-1-13.17-1.57-21.24l40.76,1.59c-.55,6-1.08,11.93-1.67,18.63C528.64,814.36,523.77,814.24,518.91,814.39Zm54.64-19.78c-4.8,0-9-.1-13.23,0-8.06.23-16.11.57-24.18.84l-.84-39.7h20v18.32l20.25,2C574.86,782,574.24,788,573.55,794.61Zm19.93,118H575V893.88l20.12.62C594.55,900.46,594,906.44,593.48,912.57ZM614,884.15c-.11,2.84-.41,5.67-.63,8.59-6.49.54-12.23,1-18,1.49-.44-6.59-.88-13.18-1.32-19.73H614C614,878.29,614.09,881.22,614,884.15Zm18.89-30.89H595V833.57l39.73,1.74Q633.8,844.24,632.87,853.26Zm20,39.63H634.37V874.07h18.48Zm1.25-38.74c-.44-7.39-.81-13.41-1.22-20.35-6.52.49-12.22.91-17.93,1.32a90.92,90.92,0,0,1-1.15-10.36c-.11-20.21,0-40.43-.08-60.64,0-2.8-.37-5.61-.62-9.29-6.56.42-12.28.79-18,1.14-2-6.62-1.2-13.22-.44-19.73,13.74-1.74,31.53-1.29,39.2,1.17v76.53l19.67,1v39.25ZM674,736.24h19.33v19.15H674Zm37.94,97.26h-18.1V813.91l20,1.63Q712.81,824.5,711.89,833.5Zm39.57-19.14c-5.51,0-10.38-.12-15.24,0-7.41.23-14.82.65-22.25,1-.69-6.67-1.37-13.35-2.09-20.32l-18.36-.92v-38.5h18.67c.41,6.49.8,12.52,1.24,19.41H732c.38,6.91.71,12.93,1,18.8l20.07,1.88C752.58,801.67,752.05,807.65,751.46,814.36Zm-37.92-79.65V716.22H732v18.49Zm132,119.22a37.6,37.6,0,0,1,6.49,1.09c-.35,8.08-.7,16.17-1,24.26-.16,4.46-.21,8.93-.32,13.51H831.86c-.43-6.58-.83-12.61-1.28-19.5h-38V853.88C810.8,853.88,828.18,853.83,845.56,853.93ZM832.14,736.46c-.49,12.52-1,25.07-1.49,38.82H772.4c-.32,7-.58,12.82-.85,18.67-6.67.57-12.41,1-18.16,1.52-2.33-13.21-.64-26.41-1.09-40.56h58.61c.45-6.94.84-13,1.28-20Zm-79.2-21.33V695.84c6.82,0,13-.05,19.16,0,6.38.07,12.75.23,19.35.36v38.64H772.58c-.39-6.46-.76-12.49-1.14-18.8Zm97.35-58.68H812c-.32,6.9-.6,12.93-.89,19.09H733V656.59H713.46V617c13.25-.21,25.77-.39,39.07.09v20l20.08.08c-.2-6.53-.53-13.06-.55-19.59,0-6.7.22-13.4.38-21.07,14.24.64,27.19,1.22,40.11,1.77-.62,6-1.25,11.91-2,19H792v19.8c19.51-.78,39-.86,58.25,0Zm0-79.86-17.87,1.76c-.47-6.63-.93-13.26-1.4-19.93h19.27Zm.1-39.29H831.85V518.83h18.58Zm-18.5-78.12q10.08.42,20.12.81-.94,9-1.91,18h-18.2C831.94,471.3,831.94,465.24,831.93,459.18Zm38.16-1.11-17.88,1.76c-.47-6.63-.93-13.26-1.39-19.93h19.27Zm.1-98.56h-18.6V341.05h18.6Zm1.29,237.15v-78h19.3V597.3Zm57.79,39.49-19.29,1v18.61H891V597.55c6.31-.49,12.67-1.49,19.74,1.13V617h18.5Zm19.87-138.33H910.86v-58h19.43v38.3l18.85.9ZM2115.9,301.64h18.75V320H2115.9Zm-79.39,473.5h-19.33V756h19.33Zm-18.79,60.12c-.53-6.6-1-13.2-1.7-21.33l21.22,1.62c-.63,5.93-1.23,11.88-1.84,17.76Zm-.8-140.06V676.72h18.49V695.2Zm18.75-158.11H2017v-18.3h18.66Zm0-79h-18.4V439.73h18.4Zm-38.29-98.33h18.46c.44-6.87.82-12.9,1.2-19h18.62v38.39h-38.28Zm-.62,198.75c14.39-1.83,32.18-1.37,38.7.75v37.79c-5,0-9.17-.1-13.39,0-8.08.22-16.15.56-24.27.82C1995.53,584.73,1997.2,571.56,1996.8,558.54Zm-18.65,177.83q-.69-9.95-1.4-19.92H1996v18.17ZM1996,755.63V794h-18.52v-38.4Zm-37.62-58.81a18.61,18.61,0,0,1-1.06-4.47q-.1-26,0-51.91c0-1.16.73-2.33,1.38-4.27,6.56.55,12.92,1.08,19.26,1.59-1.68,6-1.25,11.92-.16,18.74H1996v19.16l-18.6.87c-.29,6.55-.56,12.57-.83,18.56C1969.86,695.74,1964.13,696.3,1958.38,696.82Zm19.78-59.22-.87-39.86,20.28.46q-.71,18.79-1.42,37.64Zm-.56-119.09h18.47v18.82H1977.6Zm-.56,79h-20.26v18.69h-39.42V577.32c-10.73,0-20.2-.11-29.67,0s-18.73.55-28.14.81c-2-6.62-1.21-13.23-.27-20.76h38.1c.39-6.94.73-13,1.08-19.07q20,.35,40,.67c-2.11,12.52-.66,25-.84,37.8,13.77,1.37,26.48-.57,39.39,1.3C1977,585.25,1977,591.39,1977,597.5Zm-98.29,39.83h18.84v18.11h-18.84Zm-.23-21.29V597.86h18.82V616ZM1780,577.83l18.67-1.06c.41-6.53.79-12.57,1.22-19.43h18.54c.39-6.9.73-13,1.06-19h19.49v38.18l20.36,1.91c-.53,6-1,12-1.6,18.1H1780Zm39.27-39.73h-19.33V519h19.33Zm19-99.52c8.15.66,14.75,1.19,21.33,1.7-.67,6-1.33,11.89-2,17.71l-17.66,2C1839.41,453.35,1838.89,446.75,1838.25,438.58Zm119.7,1h18.25v18.59H1958Zm-39.56,58.69c6.84,0,13-.05,19.2,0,6.38.07,12.75.24,18.93.37v38.4l-17.88,1.75c-.67-6.67-1.34-13.33-2-20.32l-18.22-.93Zm-19.7-78.44h18.25v18.59h-18.25ZM1878.9,519h19.33V538.1H1878.9Zm-1.34-21.12h-18.48V479h18.48Zm-.06-77.39v17.79l-17.81,2q-.37-10.21-.73-20.43C1865.26,419.27,1871.59,418.31,1877.5,420.44Zm-57.85-20.71c13.24-.22,25.77-.4,39,.08v19.72h-39ZM1839.83,460c-.37,8.06-.81,16.12-1.09,24.18-.16,4.44,0,8.88,0,13.55H1819.5c-.4-6.52-.76-12.55-1.19-19.52-6.45.47-12.16.9-17.91,1.29-.49-6.57-1-13.16-1.61-21.28C1813.53,458.91,1826.69,459.48,1839.83,460Zm-59.61,18.06,20,1.64q-.93,9-1.86,18h-18.1Zm-19.86-38.54h18.37v18.7h-18.37Zm-19.72,118c13.25.12,25.78-.38,39.07.32v19.69h-39.07ZM1681.88,697c-2.25-6.67-1.07-13.34-.77-20.86,13.36.08,25.93-.35,39.31.28v19.68Zm-20.45-59.9,18.84-1.15c.31-6.72.57-12.43.89-19.48l20.26,1.55c-.33,8.06-.68,16.13-1,24.19-.17,4.46-.24,8.92-.36,13.59h-38.66Zm59.25,59.23c6.31-.49,12.66-1.5,18.52.68v18h-18.52Zm-.1-60.55c-.31-6.6-.58-12.4-.9-19.25-6.56.48-12.29.9-18,1.29-.41-8.08-.9-16.16-1.18-24.25-.18-5.14,0-10.29,0-16.37h-38.79v-19h58.85v39.25h38.65v18.83l-19.48,1.26v18.27Zm-39.28-98.44V518.87h18.48v18.46Zm39.64-19.88V498.91h18.2v18.54Zm-.06-97.24h18.66v18.27h-18.66Zm-39.71,39.17h58V478h-58Zm-19.4-177.66h18.36v19.06c-4.18,0-7.11.07-10,0s-5.65-.37-8.32-.55Zm18.91,118.67c0,3.77.09,6.7,0,9.61s-.41,5.68-.63,8.56l-17.93,1.76c-.47-6.63-.93-13.26-1.4-19.93ZM1642,418.84c7.22.6,13.62,1.13,20,1.64q-1,9-1.91,17.95H1642Zm-.09,178.77h19.33v39.25l-19.33-.69Zm-19.67-138.18h18.5v18.49h-18.5Zm-19.92-118.32h18.48v18.43h-18.48Zm.58,355.75q-.35-10.14-.67-20.27c6.3-.54,12.64-1.51,18.51.66v17.86Zm-40.72-62.09V617.34l-19.06-1V597.94c15.41-1.88,70.83-1.25,77.68.81v36.76C1608.6,637.41,1569.54,637,1562.13,634.77ZM1563.3,756c-.45-6.59-.89-13.18-1.33-19.73h19.22v18.24ZM1562,715h-18.9c0-19.84,0-39.05,0-58.25h19.07C1562.11,676.69,1562.37,695.82,1562,715Zm40.21-295.16c6.31-.54,12.65-1.53,18.51.66v18h-18.51Zm.31,157V557.87h18.07v19.45c-3.8,0-6.73.08-9.65,0S1605.23,576.94,1602.48,576.75Zm18-39.55h-18.08V517.6c7.22.6,13.61,1.13,20,1.64Q1621.49,528.23,1620.53,537.2Zm-18.6-136.82v19.21l-18.8.86c-.49-6.66-1-13.32-1.49-20.07Zm-39,18.43,20.08,1.72q-.57,13.14-1.12,26.27c-.15,3.8-.25,7.6-.38,11.36H1563ZM1543,538c13.19-.27,25.73-.45,38.21,0v19l-19.53,1.1v18.63H1543Zm-1.34-177.15v18.17l-17.88,1.75q-.69-9.94-1.39-19.92Zm-.12,138v18.49h-18.16V498.93Zm-37.9-119.6c7.22.6,13.62,1.13,20,1.64q-1,9-1.91,18h-18.08Zm-20,336.77,20.27.7-1.9,18h-18.37Zm20.44.52c-.48-6.64-.94-13.27-1.4-19.93H1522v18.18ZM1502,675.48h-18.1v-19.6l20,1.64Q1502.95,666.48,1502,675.48Zm1.15-38.61h-19.33V617.72h19.33Zm-.81-60.13h-18.5V558.13h18.5Zm0-79.14h-58.13V479.27h58.13Zm-57.89-78.92v-19.6c7.22.6,13.62,1.13,20,1.64q-1,9-1.91,18ZM1484,301.08H1502v18.77H1484Zm-1.52,79.56v18.17l-17.88,1.75c-.46-6.63-.93-13.25-1.39-19.92Zm-58-59.38h38.38v18.47h-38.38Zm-.22,256c13.43.35,26-.64,38.55.59v18.39H1424.2Zm0,118.82-19.33-.69V656.87h19.33ZM1405,478.86H1423v19.45c-3.8,0-6.73.08-9.66,0s-5.66-.36-8.41-.55Zm18.19,138.36v19.36c-4.94,0-9.17-.09-13.38,0-8.09.22-16.17.56-24.28.82-2-6.62-1.21-13.22-.32-20.6,6.7,0,12.88-.05,19.07,0C1410.62,616.91,1417,617.09,1423.14,617.22Zm-57.29,40.26q-.36-10.2-.73-20.4l20.09.63c-.53,6-1,11.91-1.57,17.81Zm17.73,58.72v18.53h-18.2V716.2Zm-18.45-237.14c6.31-.54,12.65-1.53,18.51.66v18h-18.51ZM1385,380.24h18.47v18.81H1385Zm-.65,138.68h19.79v37.82h-38.91V537.38h19.12Zm-.68-79v18.17l-17.87,1.75c-.47-6.63-.93-13.25-1.4-19.92Zm-38,18.44c7.23.6,13.62,1.13,20,1.64l-.75,18.85-19.24-.68Zm-1.52-57.63v18h-18.52V400.05C1331.94,399.51,1338.28,398.51,1344.14,400.71Zm-38.08-20h19.33v19.15h-19.33Zm-.14,217.16h18.59V616.3h-18.59Zm-.08-21.2v-18.4h18.41v18.4Zm.3,60.57h18.5V655.7h-18.5Zm-.46-158.32h18.71v38.45h-18.93C1305.42,504,1305.06,491.47,1305.68,478.89Zm-19.53-59.1h18.63v18.52h-18.63Zm-20.23,79.41h19v38c-6.42.54-12.16,1-17.93,1.47C1264.65,525.47,1266.33,512.29,1265.92,499.2Zm-19.14-118.52h18.35v18.46h-18.35Zm19.91,158.25q-.8,9-1.58,17.91l-17.84,1.75c-.49-6.55-1-13.12-1.6-21.16Zm-39.76,17.83,20.18,2c-1.63,6-1.37,12,0,18.83h18.33c.33,6.94.62,13,1,19.87h18.65V617h-38.68v19.83h-19.52V617.05l-38.84.8c-.47-6.6-1-13.2-1.45-20.2h40.36c-.36-6.41-.72-12.82-1.11-19.78l-18.71-1.12V538.34h18.71C1226.21,544.88,1226.57,550.91,1226.93,556.76Zm-20.06-38.29V538.1h-39.08v-20C1181,518.25,1193.58,517.66,1206.87,518.47ZM1167.66,400h18.57v38.24h-18.57Zm18.48,59.63v18.18l-17.88,1.75c-.46-6.63-.93-13.26-1.39-19.93Zm-38,18.45c7.22.6,13.62,1.13,20,1.64q-1,9-1.91,17.95h-18.08ZM1148,598h19.33v19.14H1148Zm-.27,40.06v18.46h-19.67V637.08C1134.37,636.5,1140.68,635.7,1147.76,638ZM1108.6,281.64h18.17v18.82H1108.6Zm0,39.45h18.27v18.83h-18.27Zm18.33,99.06v18.17L1109,440.07q-.69-9.94-1.39-19.92Zm-.09,39v18.77h-18.3c0-6.66,0-12.72,0-18.77Zm-37.94-20.58c7.22.6,13.62,1.13,20,1.64l-.6,18.72h-19.41Zm-19.75,79,20,1.63c-.62,6-1.24,12-1.86,18h-18.1Zm-20-176.84h18.59V379h-18.59ZM1068.75,617h-19.67V597.61l20.24.66Zm18.53.22V636H1069c0-6.66,0-12.72,0-18.77Zm-39.42-157.55v18.18L1030,479.58c-.46-6.63-.93-13.26-1.4-19.93Zm-18.76,38.93-19.25-.68V478.1c7.23.6,13.63,1.13,20,1.64Q1029.46,489.16,1029.1,498.58Zm18.74.9v18h-18.52v-18.7C1035.64,498.28,1042,497.28,1047.84,499.48Zm-38.15-79.34h18.8v18.41h-18.8Zm-39.57-.07H988.7v18.46H970.12Zm-.86,118V557H950.5V518.09c13.23.14,25.77-.4,39,.36v19.6Zm20.32,118.57H970.25V637.47h19.33Zm-19.5-60.12V578.24h18.48V596.5Zm0,118.53V696.35l20.11.62c-.54,6-1.07,11.93-1.61,18.06Zm38.29-19.82-17.87,1.49q-.33-19.92-.65-39.84h18.52ZM989.8,557V538.3c19.44-.78,38.87-.85,58,.05V557Zm39.71,21.2h19.33v19.15h-19.33Zm18.76,98.12v18.92h-18.76V656.53c13.24-.23,25.77-.41,39,.08v19.72Zm39.07,18.95h-18.53V676.56c6.32-.48,12.66-1.5,18.53.69Zm19.78-98.2c-5.56,0-10.43-.13-15.29,0-7.44.23-14.87.65-22.34.95-2.15-6.63-1.17-13.26-.52-20.51,13.2-.29,25.76-.43,38.15,0Zm-17.88-78c-2.15-6.63-1.17-13.26-.52-20.52,13.2-.28,25.76-.42,38.15,0v19.51c-5.56,0-10.43-.12-15.29,0C1104.14,518.32,1096.71,518.74,1089.24,519.05Zm19.19,19.58h18.83v18.12h-18.83Zm.09,79.09h19.33v19.15h-19.33Zm20.16,118.5c-2-6.63-1.21-13.24-.31-20.63,6.7,0,12.88-.05,19.06,0,6.4.07,12.8.25,18.92.38v19.36c-5,0-9.18-.1-13.39,0C1144.87,735.6,1136.79,735.94,1128.68,736.22Zm37.68,57.83h-18.52V775.36c6.32-.54,12.66-1.53,18.52.66ZM1148,675.5c0-6.66,0-12.73,0-18.8l18.7-.87c.31-13.29.61-25.88.9-38.47l20.26.66a95,95,0,0,0-.95,9.49c-.11,13.47,0,26.94-.09,40.41a74.86,74.86,0,0,1-.81,7.58Zm97.44,177.88H1227V834.56h18.47Zm0-39.53h-38.31c-.4-6.47-.77-12.53-1.16-18.8l-18-.9c-1.9-11.31-1.53-70.95.62-78.92l19,1.54c-1.65,10.21-1.34,30.58.88,38.62h17.35c1.48,13.49-.58,26.27,1.46,39.7h18.21Zm-19.54-117.23v18.23c-6.63.64-12.37,1.2-18.15,1.72a79.51,79.51,0,0,1-1.13-9.43c-.13-13.14-.06-26.28-.06-39.43V657.17h20.13v18.35h19c.31-13.16.61-25.79.9-38.42,6.46-.18,12.92-.46,19.39-.49s12.74.22,19.85.37v39.35h-20c0,10.45.09,19.93,0,29.4-.12,9.72.51,19.48-.39,28.9h-19.58v-38Zm59.15,77.56h-38.49V755.77h38.49Zm1-97.6c6.46-.17,12.92-.44,19.38-.46s12.78.23,18.91.36V695.4l-18.64.89c-.29,6.56-.56,12.59-.83,18.72H1286.1Zm.2,176.87V814.9h19.33v39.25Zm19.76-117.21h19.33v19.15h-19.33Zm19.56,58V755.63h19.52v39.26Zm19.94-216.32h19.3v58.94l-19.3-.63Zm.12,97.58v-19.6l20.07,1.72c-.7,6-1.39,12-2.08,17.88Zm38,237.12h-38.27V893.86c6.47-.16,12.93-.44,19.39-.45s12.78.23,18.88.36Zm20.77,21.2v19.15h-19.33V933.77Zm-19.23-80.51V833.57l39.72,1.74q-1,8.93-1.89,18Zm97.09,39.5h-77.33V873.7c25.75,0,50.71,0,75.67,0a13.14,13.14,0,0,1,3.56,1Q1483.2,883.75,1482.26,892.76Zm39.67-19.14c-5.58,0-10.45-.12-15.32,0-7.43.23-14.86.65-22.3,1-.46-6.62-.92-13.26-1.42-20.54,14.11-.29,26.67-.43,39,0Zm.09-39.29h-59v19h-18.85c-.38-6.45-.75-12.5-1.17-19.56-6.45.48-12.18.9-17.93,1.3-.68-6.61-1.36-13.24-2.15-21H1384l1.35-18.31-19.54-.06c-2.53-13.28-.66-26.54-1.24-40.37,20.42-.79,39.67.29,59.79-.7V696.35l19.65-1.27V677h19.74v18.49l19.6.91v19.48h-38.92v19.85h19v19.56h39.61v19.08l19,1.09Zm-17.91-177q-.34-10.11-.7-20.23c6.44-.18,12.87-.46,19.31-.49s12.75.21,20.1.35v19.53Q1523.49,656.93,1504.11,657.33Zm19.29,78.59h19c0,6.88,0,13.24,0,19.6l-19.06-.92Zm19.32,19.85,20.3.46q-.32,9.43-.59,18.91h-19.71Zm18.48,58h-18v-19.6l20.07,1.72C1562.58,801.83,1561.89,807.81,1561.2,813.73Zm2.19-18-.72-20.4c6.28-.59,12.59-1.39,19.66.94v18.47Zm19.21-138.53h19.33v19.14H1582.6Zm.08,38.16,20,1.64-.6,18.71h-19.41Zm19.64,79.05V716h19.37v59.16Zm20.27-255.36q-.71-9.93-1.39-19.92h20c0,3.77.09,6.69,0,9.61s-.4,5.67-.62,8.56Zm37.63,255-17.87,1.75c-.47-6.64-.94-13.27-1.4-19.93h19.27Zm-18.25-39V695.27c13.83.63,26.83,1.23,39.81,1.81-1.91,5.95-1.31,11.86-.2,19h19.08v19.48Zm77.51,78.5-17.87,1.75c-.68-6.67-1.35-13.33-2-20.31l-18.22-.93V774.85c6.84,0,13-.05,19.2,0,6.38.06,12.75.24,18.93.36ZM1759,754.55h-58V735.83c19.44-.77,38.87-.85,58,0Zm59.3,20.31c-5.54,0-10.41-.13-15.28,0-7.43.23-14.86.64-22.32,1-.48-6.61-1-13.24-1.56-21.16h19.46V735.82l-18.8-1V716.25c6.47-.23,12.94-.57,19.4-.62s12.82.2,19.1.31Zm.28-78.86h-39c0,7.24,0,13.63,0,20l-20-1V676.71l-19-1.25v-19.6h18.76c.31-7.07.57-12.86.83-18.71H1779c.37,6.53.7,12.56,1.08,19.18,7.88,0,14.75-.16,21.61,0,6.15.19,12.29.79,18.43,1.2q-.57,13.09-1.12,26.2C1818.8,687.57,1818.69,691.36,1818.53,696Zm20,.13V655.94l-18.36,1.55c-2.25-6.69-1.09-13.36-.79-19.92,13.2-1.8,31.69-1.38,39.36,1v57.54Zm19.06,38.61h-18.1v-19.6l20,1.64Q1858.5,725.72,1857.58,734.74Zm20.13-19.45c-6.55.48-12.29.9-18,1.3q-.35-10.11-.7-20.24l18.67-1.07c.41-6.59.77-12.63,1.14-18.58h18.79c.32,6.57.61,12.6.94,19.51h18.64V715l-19.48,1.24v18.28H1878.6C1878.29,727.93,1878,722.13,1877.71,715.29Zm1.25,40.38h19c0,6.89,0,13.25,0,19.6l-19.06-.92Zm19.31,38.41V775.52l20.43.53c-.6,5.94-1.21,11.88-1.84,18Zm20.64-18.23c-2.49-13.21-.63-26.42-1.2-39.65h20v38.9C1931.45,775.36,1925.2,775.62,1918.91,775.85ZM1956.49,794H1938V775.33c6.32-.49,12.66-1.5,18.53.68Zm-.14-79.06h-18.11V695.39l20,1.63C1957.59,703,1957,709,1956.35,715Zm1.66,39.71v-19.8c7.23.6,13.63,1.13,20,1.64q-.37,9.42-.74,18.85Zm38,138.12h-18.52V874.1c6.31-.49,12.66-1.5,18.52.68Zm-18.32-58.41V815.25H1997V834.4Zm19.57,18.9V834.65l20.36.71-2,17.94Zm19.94,21.21h19.33v19.15h-19.33Zm19.75-257.14h19.33v39.24l-19.33-.69Zm37.94-217.83c-3.8,0-6.73.08-9.66,0s-5.66-.36-8.4-.55V380.1h18.06Zm1.6,39.16H2095c.4-6.93.75-13,1.09-18.71h19.33v38.3l18.95,1v19.22c-5.53,0-10.41-.13-15.28,0-7.44.23-14.88.64-22.35,1-.69-6.67-1.38-13.35-2.09-20.32l-18.14-.88Zm39.9,100c-2.32-13.19-.64-26.37-1.06-39.47h19v38Zm-39.85-60.57,20,1.64q-.93,9-1.86,18h-18.1Zm18,98.59h-18v-19.6l20.07,1.72C2095.92,564.79,2095.23,570.77,2094.54,576.69Zm2.18-18a40.93,40.93,0,0,1,.07-21.33l19.33,1.54q-.32,9.45-.59,18.94Zm19,18.75v-19.4c6.28-.59,12.59-1.38,19.66.94v18.46Zm19.9.21c6.24-.26,12.56-1.39,19.52,1.21v18.33h-19.52ZM2175,438.43V419.91h38.23v18.52Zm38.44,98.87h-18.57V459.61h18.57Zm19.69,39.51h-18.44V558.42h18.44Zm1.5-216.47h18.07v18.77h-18.07Zm-.07,59.56h18.2v18.53h-18.2Zm18.28,255.63h-18.36V637.11h18.36Zm.1-138.5h-18.82V518.84h18.82Zm19.69-39.23h-18.43V479.4h18.43Zm-98.82,394.85-17.83,1.75c-.51-6.57-1-13.13-1.61-21.17l21,1.51Q2174.55,883.67,2173.77,892.65Zm39.5-19c-4.94,0-9.16-.09-13.38,0-8.09.23-16.17.57-24.28.85-2-6.62-1.21-13.24-.31-20.62,6.7,0,12.88,0,19.06,0,6.4.07,12.79.25,18.91.38ZM2412,498.86h38.12v18.53H2412ZM2392.61,420h18.08V438.7h-18.08Zm0,235.92,20,1.64q-.93,9-1.87,18h-18.1Zm-20-196.55h18.51v38.4h-18.51ZM2353,439.94h19.33v19.15H2353Zm18.27,157.51v18.77H2353c0-6.66,0-12.72,0-18.77Zm-18.54-.23H2333V577.83c6.28-.59,12.59-1.39,19.67.94Zm-19.9-38.76v19.15h-19.33V558.46Zm18.74-78.75v18H2333V479C2339.34,478.54,2345.69,477.53,2351.55,479.71Zm-57.8-80.17c6.9,0,13.09-.05,19.27,0,6.37.07,12.75.26,19.11.41v18.76h-38.38Zm-1.47,177.21H2273.8V558.49h18.48Zm.2-197.67h-18.7V360.74h18.7Zm1.21,60c6.83,0,13-.05,19.18,0,6.38.06,12.76.24,19.9.37V478.8c-6.25.26-12.5.52-18.78.74-.69-6.65-1.37-13.3-2.08-20.28l-18.22-.92Zm.12,58.65V478.1l20,1.64q-.93,9-1.86,18ZM2332,675.34,2314,677.11c-2.42-13.22-.63-26.43-1.19-40.3,13.83-.29,26.38-.43,38.85,0v19L2332,657Zm78.61,99.1-18.47.87c-.29,6.56-.55,12.58-.82,18.74h-18.74c-.42-6.53-.8-12.55-1.25-19.68L2333.76,776c-2.8-26.4-.42-52.8-1.3-79.36h20.13v18.08h19.08c.3-6.64.55-12.41.84-18.88,7,0,13.23-.05,19.42,0,6.4.07,12.79.25,19.62.4,0,4.29.09,7.23,0,10.15s-.42,5.66-.67,8.75l-19.38.93v19.49h-38.35V755.1c16.55,0,32.28-.08,48,.06,3.82,0,7.63.73,11.44,1.13C2411.94,762.25,2411.3,768.21,2410.65,774.44Zm19.95-20.06-17.87,1.74q-.7-9.95-1.4-19.92h19.27Zm0-98.76c-6.38.62-12.12,1.17-17.88,1.69-2.49-13.2-.63-26.41-1.19-39.63h19.07Zm20.07-59.29h-38.62v-38h19.39v18.46l19.23,1.14Zm19.47,316.32h-18.48V893.82h18.48Zm436.05-591.81h18.06V339.6h-18.06Zm-1.53,277.09V616.1l-17.88,1.75q-.69-9.95-1.39-19.92Zm-57.33,59.56c-.52-6.6-1-13.21-1.68-21.38l21.33,1.71c-.67,5.94-1.33,11.89-2,17.71Zm-39.51-98.77c-.52-6.6-1-13.2-1.68-21.37,8.15.65,14.75,1.19,21.33,1.7-.66,5.94-1.33,11.89-2,17.71Zm38.55-39.82v19.21l-18.79.86c-.5-6.66-1-13.32-1.5-20.07Zm-19.25-21.2V478.1l20,1.64q-.93,9-1.86,18Zm0,98.92,20,1.64q-.93,9-1.86,18h-18.11Zm20.13,1.44a11.43,11.43,0,0,1-1-3.48c.06-18.75.22-37.49.36-56.25,6.46-.17,12.92-.46,19.38-.48s12.77.23,18.9.36v18.9l-19.19.95V596.3C2858.78,597,2853,597.53,2847.27,598.06ZM2884.9,459.2v19.36c-5.58,0-10.45-.13-15.31,0-7.41.23-14.81.64-22.25,1q-.35-10.11-.7-20.22c6.46-.18,12.91-.46,19.37-.49S2878.78,459.07,2884.9,459.2ZM2846.66,400h18.63v18.52h-18.63ZM2826.87,341h18.7v18.34h-18.7Zm-19.63,59h18.47v18.82h-18.47Zm0,40c13.12-1.76,31.48-1.35,39.19,1v18.08q-19.28.38-38.61.71C2805.63,453.16,2806.61,446.54,2807.2,440Zm.4,20c-.61,5.95-1.22,11.9-1.82,17.77l-17.69,2c-.52-6.6-1-13.21-1.69-21.34Zm-39.68,18.09,20.07,1.72c-.7,6-1.39,12-2.08,17.88h-18Zm-19.74-98h18.06v19.44c-3.8,0-6.73.08-9.66,0s-5.67-.36-8.4-.55Zm-20,178.31h18.49v38.16h-18.49Zm-.37,78.41h-20.4v19.52c-4.22,0-7.16.07-10.09,0s-5.7-.36-8.82-.57c-.32-6.55-.6-12.35-.9-18.57L2668.94,636V617.83c13.17-1.87,51.14-1.38,58.9.9Zm-19.43-177.25H2727V478h-18.59Zm-1.3,117.19h-18.52V558c6.31-.48,12.66-1.5,18.52.69ZM2688.85,419.9h18.2v18.53h-18.2Zm-19.87-138h18.43v18.39H2669Zm19.35,256.3v19.64h-39v-20C2662.53,538,2675.06,537.47,2688.33,538.17Zm-58.26,277.34c-.53-6.6-1.05-13.19-1.69-21.34l21.23,1.63c-.63,6-1.25,11.9-1.86,17.75ZM2629.61,715v-18.5h18.49V715Zm20.16,80.67c-.47-6.64-.94-13.26-1.4-19.92h19.27v18.17Zm17.7-41.14h-18.11V734.9l20,1.63C2668.71,742.51,2668.09,748.48,2667.47,754.49Zm.14-79h-18.53V656.81c6.32-.49,12.66-1.5,18.53.68ZM2649.1,341h18.68v18.46H2649.1Zm-19.54,78.87h18.26v18.59h-18.26Zm19.26,197.5v39.2l-19.71,0c-.28,6.34-.55,12.68-.82,18.93h-18.71V656.59l-19.43-.67V637.16h19.5V597.84h19.44V616.4Zm-59-315.89h18.7v18.34h-18.7Zm-.53,177.46,19.34-.85c.34-6.95.62-12.72.9-18.43h18.62v38.15L2608.61,499v18.38c-6.61.63-12.34,1.19-18.09,1.71C2588,505.84,2589.9,492.64,2589.3,478.94Zm-19,38.67,20,1.63c-.33,8.08-.68,16.17-1,24.25-.16,4.47-.22,8.94-.32,13.46h-18.69Zm19,158.85c0,7,0,13.44,0,19.81h-20.24v18.66h-18.66c0-13.26,0-25.87,0-38.47ZM2550.65,636V617.14h18.06v19.44c-3.81,0-6.74.08-9.66,0S2553.38,636.2,2550.65,636Zm18.19-176.81V478h-38.26V459.32c6.46-.17,12.92-.46,19.39-.49S2562.74,459.07,2568.84,459.2Zm-37.6,79.64c-.46-6.63-.93-13.26-1.39-19.93h19.27v18.18Zm-20.16-138.68h18.18V419h-18.18Zm-.07,39.78h19.33v19.15H2511Zm1.13,97.51c6.18.51,12.57,1,18.94,1.55-1.66,9.85-1.38,30.42.78,38.54H2549v19.54h-37.6C2509.5,584.1,2510,545.2,2512.14,537.45Zm-21.07-38.64c6.31-.54,12.65-1.53,18.51.67v18h-18.51Zm.32-158.22h18.06V360c-3.81,0-6.74.07-9.66,0s-5.67-.37-8.4-.55Zm-.56,158H2471.5V479.45h19.33Zm-19.69-58.69H2490v18.17h-18.84Zm19.22,275.81v38.67h-38.79V716l19.35-.91V656.9h20.23c-.38-6.45-.76-12.9-1.22-20.57h-38.3V616.47h18.73c.35-7,.63-12.8.92-18.57h19.63v18.45c13.45,1.33,26.16-.54,39.39,1.26v39.22c6.37-.53,12.76-1.4,19.94.93v18.48l-20,.12v39.35ZM2511,736.24h19.33v19.15H2511Zm19.57,38.07v-18.7l18.85-1.19c.31-6.8.57-12.54.83-18.51h39.65l-.27-39.43c6.33-.88,12.66-1.37,19.7.63v38.73h18.73v38.47Zm97.9,79.56c-7.32,0-13.49-.15-19.66,0s-12.17.72-18.26,1.1q-.43-29.25-.82-58.5c0-.49.79-1,1-1.24h18c.32,6.6.6,12.58.88,18.29l20.39,2c-.37,8.07-.77,16.14-1.11,24.21C2628.67,844.25,2628.61,848.7,2628.48,853.87Zm1.06,19.75c6.86,0,13,0,19.2,0,6.37.07,12.74.25,19.87.4v19.63h-39.07Zm58.16-40.07H2669V815.28h18.66Zm79.63-60c-12.22,2.16-71.7,1.76-79.56-.54V735c-6.72.49-12.46.91-18.22,1.3-.49-6.59-1-13.18-1.53-20.32l19.64-.9c.32-6.81.59-12.56.89-18.7h19.88V676.9h19.43v19.43l19.1-1c.31-13.29.6-26,.89-38.7H2728.1V637.08l19.84.07c-.64-6.69-1.56-13.4.84-20.76l19.33,1.62q-.37,9.53-.74,19.06h18.78v38.56l-18.81.93v39.53c6.36-.55,12.74-1.36,18.89.56v19h-18.9Zm.47,41.14V795.5h19.33v19.15ZM2806.64,583c-.19,4.45-.24,8.9-.35,13.62l-19,.9c-.29,6.53-.56,12.56-.83,18.56-6.68.65-12.4,1.2-18.14,1.73a94.72,94.72,0,0,1-1.14-10.43c-.11-20.06,0-40.12-.08-60.18,0-2.87-.33-5.73-.53-8.91l-18.49-.95v-18.7h39.08v38.09c7.77.78,14.2,1.44,20.61,2.07C2807.37,566.87,2807,574.93,2806.64,583Zm.75,113.46h18.49V715h-18.49ZM2826,774.15h-18.57V735.68h18.77C2826.33,749.29,2826.74,761.83,2826,774.15Zm-18.59-98.34v-20c13.85.64,26.85,1.23,39.83,1.81q-.43,9.38-.88,18.75Zm57.75,139.4v18.18l-17.87,1.75c-.47-6.64-.93-13.27-1.4-19.93Zm0-119.93h-18.52V676.56c6.31-.48,12.66-1.5,18.52.69Zm2-57.55c-.52-6.59-1-13.19-1.68-21.34,8.1.63,14.68,1.13,21.23,1.62-.62,6-1.25,11.91-1.86,17.76Zm19.22,19.14h19.3v39.21h-19.3Zm38.08,77.89h-18.53V696.34h18.53Zm.18-158H2905.9V558.28h18.68Zm19.69,78.8h-18.83V637.36h18.83Zm1.63-136.31q-1,9-1.89,18h-18.1V517.61Z"/><path class="cls-1" d="M2905.6,854.14h19.06c.31,6.53.59,12.32.9,18.79h18.86V854.2H2963V814.69h-17.48c-.4,6.23-.79,12.28-1.23,19l-38.68.88.25-.27,0,20Z"/><path class="cls-1" d="M0,1170.25H20.81V1111H0Z"/><path class="cls-1" d="M0,953H40.5V913.62H21.66l.21-.27c-.38,6.37-.76,12.74-1.18,19.86H0Z"/><path class="cls-1" d="M2963,1051.73h-38.21c.56,7.36,1.06,14,1.57,20.62l-.18-.17,18.08-1.35c.42,6.9.78,12.89,1.19,19.6l17.55.81Z"/><path class="cls-1" d="M0,1091.24H40.49v-19c-6.45-2.2-13.29-.83-20-1-6.83-.18-13.68.15-20.52.26Z"/><path class="cls-1" d="M2963,972.72l-17.91-.13v38.78l17.91.85Z"/><path class="cls-1" d="M21.66,913.62V894.86C14.07,892.35,7,893.55,0,893.7v19.76l21.87-.11Z"/><path class="cls-1" d="M0,1209.76H20.77v-19C14,1188.73,7,1189.82,0,1190Z"/><path class="cls-1" d="M2963,1229.51h-17.34v18.93l17.34.82Z"/><path class="cls-1" d="M2963,1190h-17.34v18.93l17.34.83Z"/><path class="cls-1" d="M1048.77,735.55v38.7h-19.35c-.39-6.09-.78-12.12-1.21-19h-18.94v38.86H989.69c-.14,7.56-.37,14.28-.34,21,0,6.51.34,13,.53,19.54l-.37-.37h78V873H1049c-.3-6.38-.57-12.17-.86-18.48h-19c-.28,6.42-.53,12.21-.82,18.72l-38.83.84.26-.21v19l18.39.89c.72,7.05,1.41,13.78,2.1,20.52l-.18-.17,18.27-1.77c.27-6,.55-12,.84-18.5h19.17V932.3h19.48c.26-6.11.53-12.14.82-18.66h19.9v-19.7l18.86-1.09V874.24l19.53-1.17v-19.2h-38.17c-1.49-10.16-.53-19.92-.7-29.61-.17-9.46,0-18.93,0-29.38h-19.51V735.55Z"/><path class="cls-1" d="M2175,676.31l-20,0v19.39h-39v19.9h18.55c.34,6.72.64,12.52,1,19.61h58.25v19.52h-58.09c-.42,6.89-.78,12.92-1.2,19.84H2116v59h18.59V814.62h39.63V795.33h19.62c.3,6.11.59,11.91.91,18.36h18.93V795.12h20.64V755.56l18.56-.87c.39-6.43.77-12.78,1.16-19.12h-39.51V715.82h-18.81c-2.38-7-1.42-13.38-.94-19.76h-18.82C2173.55,689.1,2174.51,682.69,2175,676.31Z"/><path class="cls-1" d="M2491,972.61h-19.87v38.58H2451.3c-.64-18.89.07-38-.41-58.1h-18c-2.62-7.16-1.55-13.59-1.1-20h-19.69c-.33-6.78-.63-12.81-1-19.74h-18.67c-.44-6.91-.82-13-1.26-19.78h-18.94v58.54l18.94,1c.39,6.21.78,12.26,1.19,18.85l18.61.92c.38,6.33.74,12.37,1.16,19.29h18.55v19.5h-38.33v20.6l-.37-.38c6.37.11,12.86-1.29,19.17,1,.31,6.68.6,12.85.89,19l-.31-.31c6.37.11,12.86-1.28,19.17,1,.32,6.69.61,12.85.9,19l-.25-.29,20,0-.26.26v-39.76h39.76l-.26.26Q2490.91,1002.37,2491,972.61Z"/><path class="cls-1" d="M1088.28,913.33V971.8H1049V953.5h-19.55v38.35h38.45c.35,14.31.68,27.34,1,40.38l-.36-.38h18.91v19.07l-18.89.95.27-.21v18.94h38.5V1052l19.58-1.08v-18.77l-18.48-.93v-18.75l18.58-1.16V992.56h-18.89c-.49-13.51-.34-26.07-.07-39.45l18.7-.88V933.12h-18.26c-.44-6.91-.82-12.94-1.25-19.79Z"/><path class="cls-1" d="M2254,933.1h-39.51c-.33,6.61-.61,12.38-.92,18.83H2175V933.1H2116c-1.81-13.27.11-26-1.29-39.1H2076.5v18.66l18.9.91v58.28h39.18V953.4h19.68c.31,5.93.61,11.73,1,18.79h58.26c.35,7,.64,12.81,1,19.43l19.62,1-.26.25V953.11l19-.87C2253.22,945.81,2253.61,939.46,2254,933.1Z"/><path class="cls-1" d="M1583.11,1013.11l-41-1.72c.56,8.13,1,14.76,1.46,21.37l-.25-.23,18.22-1.15c.26,3.67.62,6.47.63,9.27,0,20.22,0,40.43.08,60.65a97.11,97.11,0,0,0,1.16,10.56l-.18-.17,18.27-1.77V1072h19.87v37.87h39.53v-38.06l19.46-1.2v-19h-38.88v-19.23h-19.23c-.34,5.82-.69,11.85-1.08,18.46H1582c.38-12.67-1.2-25.23,1-37.84Z"/><path class="cls-1" d="M258.91,814.58H239V775.06H219.13v38.7l-19.68,1.13.23-.24c-.34,6.13-.68,12.26-1.07,19.27H179.92c-.3,6.64-.57,12.42-.89,19.38-19.59,1.37-39.16,0-58.66.77v19.41h38.36c.78,7.63,1.47,14.36,2.16,21.09l-.18-.17L179,892.62c.26-5.94.52-12,.81-18.45h18.74c.39,6,.78,12,1.22,18.68l19.49.95-.27.25V834.48h38.72Z"/><path class="cls-1" d="M2609.74,933v58.6l18.91,1v78h58.71v-38.06h-18.54c-.28,5.72-.57,11.5-.9,18.07h-17.58c-2.18-6.13-2.89-39.9-.94-58.3h38.13V972.76h-57.84c-2-13.41.1-26.17-1.45-39.5H2609.5Z"/><path class="cls-1" d="M2708.32,913.35l-39.77,0V932.4l-19.31.86v19.07c12.88.67,25.91.2,38.9.29,12.76.08,25.53,0,38.87,0v39l-18.34.83v18.77h57.65V992.62l-18.65-.9V933.15h-39.35Z"/><path class="cls-1" d="M1799.42,1071.65V1052l-19.81-1v-38.33h-19.42c-1.4,18.77.36,38.05-1,57.85h-19v-38.26h-19.6v38.26c-13.41,1.52-26.14,0-39.29,1v19.14h38.36c.35,7.06.64,12.86,1,19.32h18.91v-18.84h40.41l-.27.25v-20h20Z"/><path class="cls-1" d="M732.56,1131.09v-20l18.88-.91c.29-2.8.77-5.3.79-7.81.07-13.44,0-26.89.08-40.34,0-3.22.64-6.43,1-9.64l.18.18-20.31-1.67c-.43,7-.79,13-1.21,19.9h-19v39.23H693.45v-18.28H673.71c-.27,5.65-.54,11.43-.88,18.47H654.1v19.54l18.69,1.21c.3,6.18.58,12,.89,18.46h38.57v-18.62h20.58Z"/><path class="cls-1" d="M2945.4,972.9q-.26-24.07-.51-48.15c0-3.52,0-7,0-11.5h-19.32V893.79c-7.31-.15-13.69-.36-20.07-.39-6.56,0-13.11.11-19.67.18v19.06l19,.9c.39,6.27.77,12.31,1.18,18.87l18.52.93v18.87h-57.77c-.94,7.92-1.74,14.6.31,21.3,0,0-.26-.24-.26-.24h38.39v38h19.72V972.9Z"/><path class="cls-1" d="M1404.62,992.38c-.33,6.15-.67,12.3-1,19.36h-58v19.9H1364c.42,7.39.79,13.87,1.16,20.34l-.36-.38c6.36.11,12.86-1.28,19.17,1,.31,6.69.6,12.85.89,19l-.24-.29H1404v-39.48h20.33l-.26.26v-19.7l18.85-1c.24-3.19.54-6,.65-8.85s0-5.83,0-10.05c-6.9-.13-13.28-.37-19.67-.35s-13.07.29-19.6.46Z"/><path class="cls-1" d="M1938,1012.18c-.3,12.68-.59,25.36-.9,38.88l-38.7.72.24-.23c-.21,18.92-.57,37.83-.58,56.75,0,7.77.74,15.54,1.14,23.31l-.18-.18,19.21-.78-.26.26v-39.53l19-.92c.28-6.23.54-12.24.84-19.07h19.87l-.26.26v-59.22h-19.71Z"/><path class="cls-1" d="M1266.09,1150.67v-39.22c-13.29-1.81-26,.11-39.48-1.35v-18.41h-19.85v58.22h-39.13v19.31h58.14c1.46-12.25-.12-25,.93-38.14h19c.31,6.28.59,12.07.91,18.66l19.78.67Z"/><path class="cls-1" d="M515.7,913.35H476.25v18.94l18.68,1.16c.39,6.89.75,13.33,1.12,19.76l-.37-.37H514.6V971.9l-18.9,1,.27-.22q.36,10.35.73,20.7l-.18-.18c5.52-.34,11-.91,16.56-1,13.41-.15,26.83-.05,40.94-.05V972.86l-18.8-.87V933.55L515.7,932.3Z"/><path class="cls-1" d="M910.81,1051.91q0-10,0-20H891c-1.22-26.49.19-52.25-.81-78.57H851.85v18.6l18.18.92v19.07h-18.3v19.54l19.07.94c0,5.43-.14,10.58,0,15.72.26,8.15.73,16.29,1.1,24.43,0,0-.25-.24-.25-.24Z"/><path class="cls-1" d="M2846.63,972.68c-.29,5.89-.57,11.78-.92,19H2827V1031l18.64,1.24c.3,6.17.58,12,.9,18.46h58v-18.84h-36.4c-1.09-1.53-1.78-2-1.77-2.55q.13-28,.4-56.06a3.33,3.33,0,0,1,.28.25l-20.63-.59Z"/><path class="cls-1" d="M357.71,1031.94v38.71l-19.62.88v38.79h38.32c.36,7.08.66,12.88,1,19.38h18.94c.72-12.34.32-24.92.21-38.5H377.21v-59H357.47Z"/><path class="cls-1" d="M298.17,1051.9v-18.34c-7.76-2.29-84.26-2.88-98.51-.91-.29,5.61-.58,11.39-.93,18.27l-18.75.86v38.4H198.7v-18.5l19.76-1c.27-6.14.54-12.18.85-19.08h79.12Z"/><path class="cls-1" d="M2036.44,913.33v19.14H2016.6c-.16,14-.25,27.19.11,40.39h19.06c.3,6.33.58,12.13.89,18.59h18.88V972.9l19.37-.93V952.85h-18.72V913.33Z"/><path class="cls-1" d="M239.19,972.68v19l18.65.92c.38,6.15.76,12.16,1.17,18.73h18.81V992.57h20.43l-.26.25V972.49H279c-.34-3-.79-5.23-.8-7.41q-.09-22.12,0-44.25a48,48,0,0,1,1-6.68l.17.19-20.74-1.7v59.14L239,972.92Z"/><path class="cls-1" d="M555,1150.67v-39.32c-13.42-1.39-26-.33-39.23-.71-.33,6.69-.62,12.47-1,19.3l-18.77.87v38.42h38.55v-18.82h20.67Z"/><path class="cls-1" d="M2609.56,913.35h-18.82c-2.37-7-1.41-13.38-.94-19.75h-19.63c-.37,6.22-.72,12.25-1.13,19.15h-18.47V952h38.3c.27-6.08.53-12.12.84-19h20l-.24.23Z"/><path class="cls-1" d="M1148.38,1072.18l18.27-1.78c.28-6,.55-12,.86-18.76h39.57l-.25.26v-38c-7.72-2.43-25.49-2.85-39.28-1.06-.27,5.6-.55,11.37-.89,18.35l-19.34.85c.59,13.76-1.29,27,1.24,40.31Z"/><path class="cls-1" d="M1918.21,1130.65v19l19.27.93c0,5.46-.15,10.62,0,15.77.28,8.16.78,16.31,1.18,24.47l-.18-.17,19-.6-.26.25v-20l19.38-.93c.11-4.72.17-9.18.33-13.64.31-8.13.68-16.25,1-24.37l.17.18c-1.55-.39-3.11-1.11-4.67-1.11-18.52.07-37,.24-55.56.39Z"/><path class="cls-1" d="M733,952.92c-.34,6.13-.68,12.27-1.07,19.29H693.7V992h37.88l2.16,21.05-.18-.17,18.27-1.77c.27-6,.55-12,.84-18.57l18.61-.87V972.83L752.89,972c-.41-6.38-.79-12.4-1.2-18.86h-18.9Z"/><path class="cls-1" d="M772.46,1210.17c-.29,6.1-.57,11.89-.88,18.32H752.79c-.31-5.89-.62-11.93-1-18.48H733.22v38.39h58.14v-18.61l19.55-1.15v-18.47Z"/><path class="cls-1" d="M160.89,894.57,121,892.84v40h38.66V952h19V913.33h-18c-1.24-6.92-1.66-12.91.09-19Z"/><path class="cls-1" d="M1227.39,1289.47l18.71-1.82c0-5.09-.13-10.21,0-15.32.23-7.46.65-14.91,1-22.36l.17.18-20.4-2c-.34-5.84-.69-11.86-1.1-18.8H1207v-19h-20.15c.53,13.26-1.33,26.54,1.2,39.83l-.18-.17,18.09-1.33c.42,7,.78,13.06,1.18,19.59l18.33.92c.72,7,1.4,13.78,2.08,20.5Z"/><path class="cls-1" d="M239,972.92V933.23c-13.44-.61-26-.38-39.55-.12v38.78l-19.45.87v18.7h38.57V972.68h20.67Z"/><path class="cls-1" d="M1522.88,1032.14v-19.68l-19.78-1V992.9h-39.17V1031l18.75,1.19c.32,6.36.62,12.15,1,18.75l19.77.65-.28.24v-20h20Z"/><path class="cls-1" d="M634.79,1210.45l18.38-1.34v39.11l19.59,1.31c.31,6.14.61,11.94.93,18.44h18.95c.72-12.34.32-24.91.21-38.49H673.49V1190.2H634l.24-.24q.36,10.33.71,20.66Z"/><path class="cls-1" d="M1700.9,893.6h-39.37c-1-20.28-.88-39.76-.13-59.26h-18.57c-2,7.07-2.61,63.57-.72,78.79h57.61C1700.13,906.35,1700.52,900,1700.9,893.6Z"/><path class="cls-1" d="M733.74,1013.09l-40.09-1.74c-.4,7-.75,13-1.15,19.88H674v39.28h18.64v-18.59l19.79-1v-18.82l19.15-.91c.65-6.28,1.28-12.31,1.93-18.32Z"/><path class="cls-1" d="M1858.68,874.09l19.15-1c.29-13.3.57-26,.85-38.74H1859c-.31-6.66-.59-12.63-.9-19.27h-39.39c.51,6.95,1,13.59,1.5,20.24l-.18-.17,18.1-1.33c.42,7,.79,13.08,1.18,19.61l19.41.93Z"/><path class="cls-1" d="M436.72,1071.44v19l18.65.89c.39,6.29.77,12.32,1.18,18.82h18.72v-18.93h39.27v-18.43c-7-2.07-58.12-2.81-78-1.11Z"/><path class="cls-1" d="M2214.52,1071.44v19l18.54.89v19.1h-18.34v20.23H2254l-.26.26c-.07-18-.17-36-.16-54,0-1.55.69-3.1,1-4.67a1.31,1.31,0,0,1,.13.12l-40.48-.73Z"/><path class="cls-1" d="M298.45,1170.21v58.37h19v-38.4l19.26-.94v-38.51H318.31c-.39,6.07-.77,12.1-1.19,18.64l-18.91,1.08Z"/><path class="cls-1" d="M1879.41,1052.61l-38.83-1.7c-2.23,7.91-2.74,66-.88,78.85h18.42v-58.08l19.17-1c.66-6.24,1.3-12.27,1.94-18.3Z"/><path class="cls-1" d="M931.25,934.09l-20.75-1q0,49.51,0,99l19.53-1v-11c0-25.19,0-50.39,0-75.58,0-3.54.64-7.07,1-10.6Z"/><path class="cls-1" d="M2293.5,933.1l-20,0v58.51h38.62V953.23l-18.6-1.15Z"/><path class="cls-1" d="M652.94,1090.2v-38.35H634.27c-.32-6.89-.6-12.9-.92-19.52H615.54c-1.88,6.47-2.43,43.72-.7,57.87Z"/><path class="cls-1" d="M1720.84,1209.58v38.73h57.76v-18.9h-18c-1.28-6.92-1.6-12.91.08-19l.17.19-40.28-.83Z"/><path class="cls-1" d="M2510.81,1051.66v38.61h18.87v-18.69h20.45l-.26.25q.49-19.57,1-39.15l.17.18-20.69-.72.21-.27-1,19-19,1Z"/><path class="cls-1" d="M1601.71,1308.87V1289l-19.49-.91V1269.5h-19.5v57.7h18.75c.27-6.16.53-12,.82-18.57H1602Z"/><path class="cls-1" d="M615.24,1230.44l-19.15-1.64c-2.19,7.78-2.7,66.21-.83,78.75h18.27c.15-3.13.43-6.28.44-9.43,0-19.39,0-38.78.07-58.17a90.31,90.31,0,0,1,1.07-9.63Z"/><path class="cls-1" d="M851.08,1307.42v-18.36l19.1-1.19v-38.15H851.49c-.28,5.9-.56,11.67-.89,18.49l-18.76.86v38.35Z"/><path class="cls-1" d="M61.13,1032.15q.32-29.46.64-58.9l.27.25L41.4,971.94v39.59H22.15v20.36H61.39Z"/><path class="cls-1" d="M357.47,1032.18c-.08-18-.19-36-.21-54.05a23.21,23.21,0,0,1,1-4.71l.17.18-41.1-1.71c.62,8.17,1.12,14.81,1.62,21.45l-.18-.17,18.53-1.37v39.39l20.44.75Z"/><path class="cls-1" d="M238.29,1110.61h39v-19.08h-57.6v38.22h18.55Z"/><path class="cls-1" d="M2096,1190v58.35h18.93v-18.62l19.28-.94V1209.6h-18.3c-.44-6.88-.83-12.91-1.25-19.4h-18.89Z"/><path class="cls-1" d="M2235,1013.11c-1.24-.38-2.48-1.08-3.71-1.07q-38.12.12-76.24.38l.24-.24v19.18l78.82.71-.26.25q.48-9.69,1-19.39Z"/><path class="cls-1" d="M811.57,1012.57v-20l19-.91V953.48H812c-.29,5.81-.59,11.59-.93,18.43l-18.77.87v38.59l19.53,1Z"/><path class="cls-1" d="M2709.09,1190.93c-1.55-.4-3.1-1.14-4.65-1.14-18.48,0-37,.16-55.44.26l.25-.23v38.72h18.62c.27-6,.54-12,.86-18.9h38.06c.79-6.82,1.49-12.82,2.17-18.83A1.31,1.31,0,0,1,2709.09,1190.93Z"/><path class="cls-1" d="M219.05,1190.14v18.73h19.18c.28-6.19.55-12.21.85-18.76l18.66-.87c.25-3.13.56-6,.67-8.77s0-5.85,0-8.6c-7.18-2.35-40.78-3-58.5-1.22v18.54Z"/><path class="cls-1" d="M1819.22,953.16v-20c-13.33-.48-25.87-.32-39.09-.06v58.45h18.79V952.92h20.54Z"/><path class="cls-1" d="M733.56,1171l18.08-1.34c.43,7,.8,13.06,1.19,19.55h18.51v-38.51l-18.76-.89v-18.09c-7.22-2-13.6-1.5-20-.58l.27-.25q.45,20.15.91,40.28Z"/><path class="cls-1" d="M831.51,1170.42v-19.75l-19.57-.89V1132c-7.12-2.52-13.52-1.56-19.89-1l.23-.24v58.35H811.2v-18.89h20.57Z"/><path class="cls-1" d="M1484.19,1131.44l17.94-1.74c.26-2.56.71-5.08.73-7.59.07-13.43,0-26.87.08-40.3,0-3.22.64-6.42,1-9.63l.17.18c-13.21-2.46-26.44-.78-40.18-1v19l19.24,1.17c0,9.15-.13,17.88,0,26.6.1,4.51.76,9,1.17,13.51Z"/><path class="cls-1" d="M2728.11,1130.7V1150h38.34c.44,6.87.83,12.9,1.25,19.4h18.47V1131c-19.34-.91-38.81-.89-58.3,0Z"/><path class="cls-1" d="M378.17,874.81l-39.93-1.72v39.42h38.38c.11-4.54.18-9,.34-13.47.3-8.14.66-16.29,1-24.42Z"/><path class="cls-1" d="M1779.94,1091.13v38.69h18.81c.26-6.12.53-12.15.82-18.72l18.64-.88v-38.57h-18.79l.25-.27c-.32,6.14-.64,12.29-1,19l-19,1Z"/><path class="cls-1" d="M2154.66,1091.17V1052h-18.91v58h37.91v-18.84Z"/><path class="cls-1" d="M2234,834.59l20,0v-19.7l18.53-1V775.38h-18.62V794l-20,.78Z"/><path class="cls-1" d="M457,1210.45c4.83-.34,9.66-1,14.49-1,14.68,0,29.36.24,44,.38l-.27.25v-18.46c-7.25-2.37-43.79-3-58.65-1.06-.71,6.61-1.63,13.32.57,20Z"/><path class="cls-1" d="M1108.28,1229.8V1268h18.91v-18.57l19.32-.94V1229.8Z"/><path class="cls-1" d="M2016.71,1051.9v-19.68l18.89-1.09v-18.49H1997c-.56,12.23-.28,24.83-.12,38.31l20.07.69Z"/><path class="cls-1" d="M1068.89,1032.23l-20.2-1.16v-18.45H1029v39.25l39.78-.21-.27.21,0-20Z"/><path class="cls-1" d="M1562.66,1190v19.7h39.49l-.26.26v-39.49h-19.56v18.47l-19.91,1.3Z"/><path class="cls-1" d="M476.22,1031.9v18.94h38.25v-38.45H495.74l.21-.27c-.32,6.14-.64,12.29-1,19l-19,1Z"/><path class="cls-1" d="M476.31,1012.46h-40c.32,13.62-1.33,26.85,1,40.06l-.25-.23,18.59-1.56V1031.9h20.52l-.27.22q0-10,0-20Z"/><path class="cls-1" d="M2392.37,1032.23H2352.6c-.59,12.37-.27,25-.17,38.24h19.22v-18.84h20.65l-.28.24,0-20Z"/><path class="cls-1" d="M2273.51,1071.65V1032c-7.23-.13-13.64-.37-20-.32s-13.1.4-19.65.63l.26-.25v18.87l18.59.9c.72,7.11,1.4,13.83,2.09,20.56,0,0-.14-.13-.13-.11q9.59-.43,19.14-.9Z"/><path class="cls-1" d="M1503.92,1072.18c7.47-.34,14.94-.76,22.42-1,4.86-.15,9.73,0,15.44,0,.51-13.41,1-26,1.49-38.63l.27.24c-6.88-.19-13.77-.41-20.66-.62l.25-.27c-.33,6.15-.65,12.29-1,19l-19,1,.28-.24q.33,10.35.68,20.72Z"/><path class="cls-1" d="M435.55,1150.78c-2.78-.23-5-.57-7.25-.58-10.09-.06-20.18,0-30.92,0v19.28l18.52.94c.38,6.31.74,12.34,1.13,18.79h18.52Z"/><path class="cls-1" d="M2767.61,1269.4v57.83h17.54c2.12-6.47,2.7-43,.76-57.83Z"/><path class="cls-1" d="M120.39,1249.43v-39.3c-13.43-1.41-26-.35-39.16-.72v19.15l18.71,1.21c.32,6.31.62,12.11,1,18.73l19.75.67Z"/><path class="cls-1" d="M594.73,992.38v19H633V972.94H614.43v18.44l-20,1.26Z"/><path class="cls-1" d="M1839.9,1190.89l-20.16-1.66v39.31h37.88v-18.89h-18c-1.28-6.91-1.61-12.9.09-18.94Z"/><path class="cls-1" d="M1622.08,933c-.4,6.13-.79,12.26-1.25,19.26h-18.42v19.5h38V933.26h-18.54Z"/><path class="cls-1" d="M1700.06,971.64v-38h-18.93c-.28,5.89-.56,11.66-.89,18.5l-18.76.83v18.64Z"/><path class="cls-1" d="M1483.38,1307.76v-18.53H1464v37.92h38.28v-18.44Z"/><path class="cls-1" d="M929.49,1169.36V1131h-38.2v18.72l18.41.9c.39,6.2.77,12.23,1.18,18.77Z"/><path class="cls-1" d="M2392.3,1051.63v38.63h38.41c.28-6.18.57-12.54.86-18.89l.25.29-20.07-1v-19l.31.31-20,0Z"/><path class="cls-1" d="M1957.71,1071.39v18.95h57.81c.7-6,1.39-12,2.07-18a1.31,1.31,0,0,1,.13.12c-1.23-.38-2.46-1.1-3.69-1.1-18.86.06-37.72.21-56.58.34Z"/><path class="cls-1" d="M357.25,953.31v-18.4c-7.18-2.46-39.52-3.16-58.53-1.35v18.76l58.79.74Z"/><path class="cls-1" d="M1424.37,1031.89v58.43h18.52v-58.17h-18.78Z"/><path class="cls-1" d="M1720.68,913.83v38.09h38.43V933.33h-18.67c-.31-6.87-.58-12.86-.89-19.5Z"/><path class="cls-1" d="M1088.12,1170.6q.5-19.57,1-39.15l.17.18c-13.24-2.7-26.49-.43-40.21-1.29v19.24l18.8,1.15c.32,6.35.61,12.13.94,18.66l19.59,1Z"/><path class="cls-1" d="M851.31,1091.12h18.86c.52-13.79,1-26.33,1.49-38.85a3.2,3.2,0,0,1,.27.25l-40.38-.59.24-.24.06,20-.36-.37c6.36.1,12.85-1.29,19.16,1,.32,6.68.61,12.85.9,19Z"/><path class="cls-1" d="M1128.09,775.36l0-20h-18.82c-2.37-7-1.41-13.37-.94-19.75h-19.44v38.88Z"/><path class="cls-1" d="M2253.19,1228.67v-57.88h-18.8v57.88Z"/><path class="cls-1" d="M2273.77,1071.39v38.66h18.94v-18.9h20.56l-.26.26v-19.86c-7.14-.14-13.52-.38-19.9-.36-6.54,0-13.07.3-19.6.46Z"/><path class="cls-1" d="M2391.77,1228.66c0-11.81,0-22.58,0-33.35a39,39,0,0,0-.7-5.12H2372.5c-.26,6-.53,11.71-.84,18.74H2353v19.73Z"/><path class="cls-1" d="M1899.18,1131.61l-19.19-1.55c-2.16,7.94-2.54,47.42-.7,59h17.85a73.51,73.51,0,0,0,.78-7.58c.08-13.47,0-27,.08-40.43,0-3.22.63-6.43,1-9.63Z"/><path class="cls-1" d="M1009.54,1071.38H969.78v39.75l19.06-1c.3-6.37.59-12.35.9-19h19.81l-.26.26Q1009.41,1081.39,1009.54,1071.38Z"/><path class="cls-1" d="M594.07,1406.25v-18.57l19-.84v-18.7H574.86c-.12,6.08-.29,12.46-.35,18.84-.06,6.19,0,12.37,0,19.27Z"/><path class="cls-1" d="M2727.87,1130.94c-.08-18-.19-36-.2-54a22,22,0,0,1,1-4.68l.12.12-19.14-1.63c-2.21,7.79-2.65,46.81-.79,59.23l19.2.69Z"/><path class="cls-1" d="M279.21,914.15c7.47-.34,14.94-.76,22.41-1,4.86-.16,9.73,0,15.33,0V893.84L298.29,893V874.46H278.2c.54,13.32-1.26,26.58,1.17,39.87Z"/><path class="cls-1" d="M2313.27,1091.15v58.42h18.52v-58.16H2313Z"/><path class="cls-1" d="M2570.62,1131.44l18.08-1.34c.42,7,.79,13,1.19,19.52h19.19c0-4.66-.13-9.11,0-13.55.28-8.09.72-16.17,1.08-24.27a1.31,1.31,0,0,1,.13.12l-41.13-1.79c.61,8.2,1.11,14.84,1.61,21.48Z"/><path class="cls-1" d="M2807.09,893.6l-59.53,0v19h58.37C2806.31,906.31,2806.7,900,2807.09,893.6Z"/><path class="cls-1" d="M1720.77,1011.37h18.84V992.75l19.46-1.16V973.15h-38.3Z"/><path class="cls-1" d="M396.88,1012.35v18.76h18.87V992.67H377.68v18.76Z"/><path class="cls-1" d="M2293.54,1229.47c-.34,6.13-.68,12.25-1.07,19.24H2274v19.43H2312v-38.43H2293.3Z"/><path class="cls-1" d="M1483.68,1268.16H1522V1249.5l-19-1.11v-18.47h-19.38Z"/><path class="cls-1" d="M1680.82,1228.61v-18.45h-19.37v38h38.37v-18.44Z"/><path class="cls-1" d="M2826.88,1150.46v18.91h38.24V1131h-18.38c-.39,6.09-.78,12.12-1.19,18.65l-18.91,1.08Z"/><path class="cls-1" d="M733.74,1171.12l-39.93-1.73v19.67h37.81q1-9.12,1.92-18.13Z"/><path class="cls-1" d="M1562.42,1190.21V1151h-20c.55,13.27-1.32,26.55,1.2,39.83l-.17-.17,19.21-.74Z"/><path class="cls-1" d="M1839.73,1190.71l18-1.76V1151h-19c.49,13.26-1.29,26.54,1.15,39.84Z"/><path class="cls-1" d="M1622,1406.45h38.26v-19.11c-12.58-.2-25.12-.26-38.26.11Z"/><path class="cls-1" d="M2095.77,1190.2v-19.87c-7.14-.15-13.51-.32-19.88-.39-6.16-.07-12.33,0-19.19,0v20H2096Z"/><path class="cls-1" d="M2529.17,1387.77h-38.11v18.52h38.11Z"/><path class="cls-1" d="M2530.58,1150.46q.32,20.18.63,40.33l-.25-.23,18.86-1.58c0-4.47-.13-8.92,0-13.37.28-8.1.72-16.19,1.08-24.3,0,0,.13.11.13.11l-20.72-.72Z"/><path class="cls-1" d="M2708.43,1406.44H2727v-38.18h-18.55Z"/><path class="cls-1" d="M357.71,1367.74v18.92H396v-18.81c-6.1-.12-12.48-.38-18.86-.36-6.55,0-13.09.32-19.63.5Z"/><path class="cls-1" d="M119.78,1169.17v-18.25H81.23v18.25Z"/><path class="cls-1" d="M298.21,1170.45q.38-19.5.76-39l.17.18L279,1130v39.53l19.47.71Z"/><path class="cls-1" d="M555.23,1150.41v18.95h38.26v-18.79c-6.1-.13-12.49-.38-18.88-.37-6.55,0-13.1.3-19.64.47Z"/><path class="cls-1" d="M950.25,1150.8v18.48h38.21V1150.8Z"/><path class="cls-1" d="M2292.52,1366.82v-38.25H2274v38.25Z"/><path class="cls-1" d="M2886.11,1131v38.28h18.49V1131Z"/><path class="cls-1" d="M2055.47,1149.51v-18.44h-38.15v18.44Z"/><path class="cls-1" d="M1721.38,1309.41l-39.9-1.76v19.68h37.8q1-9.07,1.93-18.1Z"/><path class="cls-1" d="M2076.4,1308.34v19h38v-18.77h-38.28Z"/><path class="cls-1" d="M792.57,1307.85h18.12v-38.49H792.57Z"/><path class="cls-1" d="M950.31,1111.17c-.29-6.18-.59-12.36-.95-19.87-6.45-.13-12.83-.34-19.21-.37-6.55,0-13.1.11-19.65.18v19.16Z"/><path class="cls-1" d="M1009.55,1091.15v18.95h38.27v-18.79c-6.11-.13-12.49-.38-18.88-.37-6.55,0-13.1.3-19.65.46Z"/><path class="cls-1" d="M1365.12,1071.41V1110H1384c.21-12.83.42-25.74.64-38.65l.24.29-20,0Z"/><path class="cls-1" d="M2036.9,1071.3V1110h18.29v-38.49h-18.54Z"/><path class="cls-1" d="M2451.55,1071.39v38.68h18.52v-38.42h-18.78Z"/><path class="cls-1" d="M2727.06,1307.48V1269.4h-18.37v38.08Z"/><path class="cls-1" d="M298.43,1051.64v38.68H317V1051.9H298.17Z"/><path class="cls-1" d="M1304.69,1051.88h-18.45v38.51h18.45Z"/><path class="cls-1" d="M2096.54,1091.93l18-1.74v-37.93H2095.5c.56,13.29-1.31,26.57,1.22,39.84Z"/><path class="cls-1" d="M2590.53,1072.37q-20.33-.28-40.66-.54l.26-.25v18.81h38.32l1.91-18.2Z"/><path class="cls-1" d="M2807.35,1090.56h18.24V1052h-18.24Z"/><path class="cls-1" d="M2885.25,1090.16v-18.25h-38.56v18.25Z"/><path class="cls-1" d="M831.55,1051.93v-38.74c-7.15-2.07-13.55-1.52-20-.62l.26-.25c0,12.64,0,25.28,0,39.37h20Z"/><path class="cls-1" d="M2174,1287.81v-38.26h-18.49v38.26Z"/><path class="cls-1" d="M2551,1250.15l-20.17-1.66v39.33h18.67c.1-4.51.15-9,.31-13.43.3-8.14.68-16.28,1-24.42Z"/><path class="cls-1" d="M1839.19,992.38v19h38.27V992.54c-6.11-.13-12.5-.38-18.88-.36-6.55,0-13.1.29-19.65.46Z"/><path class="cls-1" d="M2352.8,972.68v38.63h18.5V972.92h-18.74Z"/><path class="cls-1" d="M496.05,953.21l-39.88-.37v19.8H496l-.27.22q0-10,0-20Z"/><path class="cls-1" d="M574,1268v-18.44H535.82V1268Z"/><path class="cls-1" d="M2490.77,952.84q0,10,0,20l39.77-.23-.26.26V953c-7.14-.14-13.52-.34-19.9-.37C2503.86,952.63,2497.31,952.77,2490.77,952.84Z"/><path class="cls-1" d="M2846.39,972.92V933.43h-19.32V972l19.56.72Z"/><path class="cls-1" d="M1187.07,913.6l20,0q0-19.9,0-39.8h-19.85c-.12,6.83-.32,13.51-.35,20.2C1186.85,900.56,1187,907.08,1187.07,913.6Z"/><path class="cls-1" d="M239.73,894.4l18-1.75V854.73H238.69c.56,13.29-1.31,26.56,1.21,39.84Z"/><path class="cls-1" d="M398,1230.44,358,1228.61v19.69h37.71q1-8.94,2.08-18A1.31,1.31,0,0,1,398,1230.44Z"/><path class="cls-1" d="M457.19,1210.62,437,1209v39.33h18.67c.11-4.54.16-9,.32-13.48.29-8.14.65-16.28,1-24.41C457,1210.45,457.19,1210.62,457.19,1210.62Z"/><path class="cls-1" d="M1247.13,1250l18-1.76V1210.3h-19c.49,13.26-1.29,26.54,1.15,39.84Z"/><path class="cls-1" d="M2055.4,1248.22v-18.31H2017v18.31Z"/><path class="cls-1" d="M1187.32,834.34l-39.78,0v18.95h38.62C1186.54,847,1186.93,840.68,1187.32,834.34Z"/><path class="cls-1" d="M1820.17,835.31l-39.93-1.73v19.68h37.82c.63-6.09,1.26-12.12,1.91-18.14Z"/><path class="cls-1" d="M970.6,1230.21l18-1.75v-37.92H969.56c.56,13.28-1.31,26.56,1.22,39.84Z"/><path class="cls-1" d="M1067.53,1190.28h-18.22v38.28h18.22Z"/><path class="cls-1" d="M2489.8,1210h-38v18.65h38Z"/><path class="cls-1" d="M396.94,1209.93v-19.86c-7.11-.14-13.48-.31-19.85-.38-6.16-.06-12.32,0-19.18,0v20H397.2Z"/><path class="cls-1" d="M535.88,1210.32c8.15-.3,16.31-.65,24.47-.87,4.21-.12,8.43,0,13.39,0v-19.36c-6.11-.13-12.51-.31-18.9-.38-6.18-.06-12.36,0-19.05,0-.93,7.48-1.71,14.17.34,20.87Z"/><path class="cls-1" d="M831.77,1170.16v38.68h18.52v-38.42H831.51Z"/><path class="cls-1" d="M1109,1171.13l-20.91-.54.27-.24c0,12.66,0,25.33,0,38.52h19.45c0-5.33-.13-10.44,0-15.55.22-7.46.65-14.91,1-22.37Z"/><path class="cls-1" d="M1363.76,1170.25h-18.08v38.49h18.08Z"/><path class="cls-1" d="M1760.71,1210.45c7.48-.34,15-.76,22.43-1,4.87-.16,9.74,0,15.32,0v-19.52c-12.35-.43-24.91-.29-39,0,.49,7.33,1,14,1.41,20.71Z"/><path class="cls-1" d="M1345.69,1446.12h18.07v-18.74h-18.07Z"/><path class="cls-1" d="M2234.11,1427.57v18.16h18.83v-18.16Z"/><path class="cls-1" d="M2273.81,1427.45v18.29h18.64v-18.29Z"/><path class="cls-1" d="M297.57,1426v-18.22H278.76V1426Z"/><path class="cls-1" d="M1246.58,1407.64V1426H1265v-18.39Z"/><path class="cls-1" d="M1798.65,1426.13v-18.6h-18.48v18.6Z"/><path class="cls-1" d="M2392.3,1407.25v18.91h18.51v-18c-5.93-2.22-12.36-1.17-18.75-.64Z"/><path class="cls-1" d="M2470.47,1426.21v-18.4h-18.78v18.4Z"/><path class="cls-1" d="M455.16,1387.81H437v18.53h18.18Z"/><path class="cls-1" d="M535.62,1406.48h18.46V1388H535.62Z"/><path class="cls-1" d="M850.49,1406.37v-18.59H832v18.59Z"/><path class="cls-1" d="M1521.77,1387.52h-18v18.76h18Z"/><path class="cls-1" d="M1759.33,1406.43v-18.35H1740.6v18.35Z"/><path class="cls-1" d="M1956.73,1406.33v-18.5h-18.48v18.5Z"/><path class="cls-1" d="M2154.1,1387.66h-18.46v18.82h18.46Z"/><path class="cls-1" d="M2392.06,1407.49v-19.38h-19.31v19.14h19.55Z"/><path class="cls-1" d="M2687.22,1387.52h-18v18.76h18Z"/><path class="cls-1" d="M99.58,1368.09H81.44v18.48H99.58Z"/><path class="cls-1" d="M159,1367.9H140.55v18.82H159Z"/><path class="cls-1" d="M713.21,1368.09v18.47h18.47v-18.47Z"/><path class="cls-1" d="M1444.2,1386.68h18.58v-18.46H1444.2Z"/><path class="cls-1" d="M357.47,1368V1348.6H338.15v19.14h19.56Z"/><path class="cls-1" d="M910.74,1348.34v18.47h18.48v-18.47Z"/><path class="cls-1" d="M1245.44,1348.16H1227V1367h18.46Z"/><path class="cls-1" d="M1661.43,1348v18.91h18.51v-18c-5.94-2.23-12.36-1.18-18.75-.65Z"/><path class="cls-1" d="M1838,1348.23h-18.32v18.67H1838Z"/><path class="cls-1" d="M2037.05,1367.1h18.08v-18.73h-18.08Z"/><path class="cls-1" d="M2096.06,1366.93h18.58v-18.46h-18.58Z"/><path class="cls-1" d="M2193.44,1348.33h-18.15v18.49h18.15Z"/><path class="cls-1" d="M2549.16,1348.16H2530.7V1367h18.46Z"/><path class="cls-1" d="M654.7,1329.16l-20.16-1.66v19.59H652.6q1-9.08,1.93-18.11Z"/><path class="cls-1" d="M890,1347.7v-19.06H871.63v18.49c2.71.18,5.54.45,8.37.55S885.85,1347.7,890,1347.7Z"/><path class="cls-1" d="M1345.4,1328.87v18.26h18.47v-18.26Z"/><path class="cls-1" d="M1661.19,1348.23v-19.38h-19.32V1348h19.56Z"/><path class="cls-1" d="M2707.11,1328.48h-18.32v18.66h18.32Z"/><path class="cls-1" d="M119.36,1308.8H101.17v18.53h18.19Z"/><path class="cls-1" d="M179.87,1308.83v18.47h18.47v-18.47Z"/><path class="cls-1" d="M377.62,1308.34v19h18.29v-18.76H377.37Z"/><path class="cls-1" d="M455.57,1327.38v-18.27H436.92v18.27Z"/><path class="cls-1" d="M514.69,1327.36v-18.6H496.2v18.6Z"/><path class="cls-1" d="M654.53,1329l18-1.76v-18.16H653.3c.46,6.71.92,13.39,1.39,20.09Z"/><path class="cls-1" d="M693.78,1327.63h18.16v-18.82H693.78Z"/><path class="cls-1" d="M1067.54,1308.77h-18.23v18.58h18.23Z"/><path class="cls-1" d="M1108.34,1308.48v18.91h18.5v-18c-5.93-2.23-12.35-1.18-18.74-.64Z"/><path class="cls-1" d="M1622.61,1309.41q-10.44-.27-20.9-.54l.26-.25v18.8h18.59l1.88-18.19Z"/><path class="cls-1" d="M1995.85,1308.51h-18v18.87c2.73.18,5.56.45,8.39.55s5.86,0,9.65,0Z"/><path class="cls-1" d="M2035.91,1327.13V1309h-18.82v18.12Z"/><path class="cls-1" d="M2352.77,1308.87v18.4h18.4v-18.4Z"/><path class="cls-1" d="M2412.06,1308.48v18.91h18.5v-18c-5.93-2.23-12.35-1.18-18.74-.65Z"/><path class="cls-1" d="M2668,1327.05V1309h-18.82v18.1Z"/><path class="cls-1" d="M2924.59,1327.25V1308.9h-18.36v18.35Z"/><path class="cls-1" d="M378.15,1289.65,358,1288v20.35h19.63l-.24.23q.31-9.55.61-19.1Z"/><path class="cls-1" d="M1108.1,1308.73v-19.39h-19.32v19.14h19.56Z"/><path class="cls-1" d="M1227.57,1289.64l-20.19-1.64v19.58h18.08c.63-6.08,1.26-12.11,1.91-18.13Z"/><path class="cls-1" d="M1324.38,1289h-18.32v18.67h18.32Z"/><path class="cls-1" d="M1443.09,1307.49v-18.35h-18.36v18.35Z"/><path class="cls-1" d="M1622.44,1309.23l18-1.76V1289.3h-19.24c.47,6.72.92,13.4,1.39,20.1Z"/><path class="cls-1" d="M1721.21,1309.23l18.08-1.77c.21-2.88.51-5.71.62-8.55s0-5.83,0-9.61h-20c.46,6.72.92,13.4,1.39,20.1Z"/><path class="cls-1" d="M1839,1289.23v18.18h18.81v-18.18Z"/><path class="cls-1" d="M2076.94,1289.65l-20.17-1.65v20.35h19.63l-.24.23q.3-9.55.61-19.1Z"/><path class="cls-1" d="M2411.82,1308.72v-19.38H2392.5v19.14h19.56Z"/><path class="cls-1" d="M2885.14,1307.55v-18.48h-18.48v18.48Z"/><path class="cls-1" d="M61.35,1269.32v18.48H79.82v-18.48Z"/><path class="cls-1" d="M378,1289.47l18-1.76v-18.16H376.75c.47,6.71.92,13.4,1.39,20.09Z"/><path class="cls-1" d="M890.88,1269.55v18.16h18.83v-18.16Z"/><path class="cls-1" d="M1365,1269.55v18.16h18.83v-18.16Z"/><path class="cls-1" d="M1818.61,1287.94v-18.41h-18.78v18.41Z"/><path class="cls-1" d="M2076.77,1289.47l18-1.76v-18.16h-19.24q.69,10.07,1.39,20.09Z"/><path class="cls-1" d="M2588.66,1269.14H2570.2V1288h18.46Z"/><path class="cls-1" d="M2905.89,1269v18.9h18.51v-18c-5.94-2.22-12.36-1.17-18.75-.64Z"/><path class="cls-1" d="M120.65,1249.17v18.95h18.52v-18c-5.94-2.21-12.38-1.14-18.78-.67Z"/><path class="cls-1" d="M199.82,1268.17h18.42v-18.38H199.82Z"/><path class="cls-1" d="M297.22,1249.45H278.86v18.7h18.36Z"/><path class="cls-1" d="M1188.07,1250.13l-20.2-1.64v19.59H1186q1-9.12,1.92-18.14Z"/><path class="cls-1" d="M1304.54,1249.57h-18.15v18.48h18.15Z"/><path class="cls-1" d="M1602.35,1268.28h18.33v-18.44h-18.33Z"/><path class="cls-1" d="M2629.15,1249.72v18.18H2648v-18.18Z"/><path class="cls-1" d="M2905.65,1269.22q.38-9.63.76-19.25l.17.18-20.16-1.66v19.78l19.47.71Z"/><path class="cls-1" d="M40.43,1229.69H22.07v18.71H40.43Z"/><path class="cls-1" d="M179.09,1248.43V1230H160.31v18.4Z"/><path class="cls-1" d="M516.43,1230.39l-20.16-1.66v19.59h18.06q1-9.08,1.93-18.11Z"/><path class="cls-1" d="M970.78,1230.38l-20.19-1.64v19.58h18.07c.64-6.08,1.27-12.11,1.92-18.13Z"/><path class="cls-1" d="M1009.88,1248.58H1028v-18.73h-18.07Z"/><path class="cls-1" d="M1543,1230v18.42h18.47V1230Z"/><path class="cls-1" d="M2213.3,1229.69h-18.36v18.71h18.36Z"/><path class="cls-1" d="M2550.85,1250l18-1.77v-17.85c-5.94-2.21-12.36-1.17-18.75-.64l.24-.24q.33,10.33.68,20.67Z"/><path class="cls-1" d="M2787.37,1229.47v18.91h18.51v-18c-5.94-2.23-12.36-1.18-18.75-.65Z"/><path class="cls-1" d="M2906.41,1250l18-1.76V1230h-19.24c.46,6.72.92,13.4,1.39,20.1Z"/><path class="cls-1" d="M397.2,1209.67q.36,10.38.74,20.76a1.2,1.2,0,0,0-.12-.11l17.92-2v-17.78c-6-2.17-12.41-1.14-18.8-.65Z"/><path class="cls-1" d="M516.26,1230.21l18-1.76q.81-9.09,1.64-18.15l.27.25-20.85-.45.26-.24q.44,10.26.88,20.52Z"/><path class="cls-1" d="M635,1210.62,613.56,1209c.63,8.16,1.15,14.78,1.67,21.42l-.12-.11,17.8-2c.61-5.93,1.23-11.94,1.86-17.93Z"/><path class="cls-1" d="M1602.15,1209.67v18.94h18.52v-18c-6-2.21-12.38-1.14-18.78-.66Z"/><path class="cls-1" d="M1879,1228.83h18.07V1210.1H1879Z"/><path class="cls-1" d="M1977.48,1209.72v18.9H1996v-18c-5.93-2.22-12.36-1.17-18.74-.64Z"/><path class="cls-1" d="M2293.3,1229.71v-19.38H2274v19.14h19.56Z"/><path class="cls-1" d="M2550.09,1229.71v-18.79c-7-2.49-13.38-1.51-19.75-1l.24-.24v19.75h19.75Z"/><path class="cls-1" d="M2787.13,1229.71v-19.38h-19.32v19.14h19.56Z"/><path class="cls-1" d="M60.24,1190.12H41.78v18.82H60.24Z"/><path class="cls-1" d="M160.18,1190.39v18.33h18.69v-18.33Z"/><path class="cls-1" d="M890.05,1208.79V1190.3H871.57v18.49Z"/><path class="cls-1" d="M1128.11,1190.41v18.29h18.65v-18.29Z"/><path class="cls-1" d="M1444.83,1190.89l-20.16-1.66v19.58h18.07q1-9.07,1.92-18.1Z"/><path class="cls-1" d="M1543.62,1190.87l-20.19-1.64v19.59h18.08q1-9.12,1.92-18.14Z"/><path class="cls-1" d="M1700.94,1190v19.62h19.9l-.24.23v-18.68c-7.17-2.37-13.54-1.51-19.9-.92Z"/><path class="cls-1" d="M1938.69,1190.87l-20.19-1.64v19.59h18.08q.95-9.12,1.91-18.14Z"/><path class="cls-1" d="M1977.25,1210v-19c-7.14-2.12-13.55-1.54-20-.65l.26-.25v19.62h20Z"/><path class="cls-1" d="M2530.34,1210q.28-9.72.6-19.41l.27.24q-10.29-.27-20.62-.58l.23-.25v19.75h19.76Z"/><path class="cls-1" d="M2728.11,1190v18.91h18.51v-18c-5.94-2.23-12.36-1.18-18.75-.64Z"/><path class="cls-1" d="M2904.83,1208.73v-18.35h-18.35v18.35Z"/><path class="cls-1" d="M634,1190.2v-19.38H614.7V1190h19.56Z"/><path class="cls-1" d="M1403.58,1189v-18.35h-18.35V1189Z"/><path class="cls-1" d="M1444.66,1190.71l18-1.76v-18.17h-19.24c.47,6.72.92,13.4,1.39,20.1Z"/><path class="cls-1" d="M1502.51,1188.78v-18.11h-18.82v18.11Z"/><path class="cls-1" d="M1700.7,1190.21l.75-19.26.18.18-20.16-1.66v19.78l19.47.71Z"/><path class="cls-1" d="M2353.49,1171.13l-20.16-1.66v19.59h18.06q1-9.07,1.93-18.11Z"/><path class="cls-1" d="M2412.21,1170.07v19h18.29V1170.3H2412Z"/><path class="cls-1" d="M2510.59,1190.21v-19.39h-19.32V1190h19.55Z"/><path class="cls-1" d="M2649.79,1171.13l-20.18-1.65v20.35h19.64l-.25.23q.32-9.55.62-19.1Z"/><path class="cls-1" d="M2727.87,1190.21v-19.44H2707.6c.5,6.77,1,13.46,1.48,20.15a1.2,1.2,0,0,0-.12-.11q9.59-.4,19.15-.85Z"/><path class="cls-1" d="M357.65,1150.8v18.48h18.47V1150.8Z"/><path class="cls-1" d="M1108.85,1171l18-1.76V1151h-19.24q.69,10.07,1.39,20.09Z"/><path class="cls-1" d="M1266.35,1150.41v18.93h18.37c.64-6.11,1.28-12.12,1.91-18.14l.18.18-20.73-.71Z"/><path class="cls-1" d="M1641.51,1151v18.16h18.83V1151Z"/><path class="cls-1" d="M1701.45,1171l18.08-1.76c.22-2.88.52-5.71.62-8.55s0-5.84,0-9.61h-20q.69,10.07,1.39,20.09Z"/><path class="cls-1" d="M1740.71,1169.6h18.16v-18.81h-18.16Z"/><path class="cls-1" d="M1798.65,1169.34v-18.6h-18.48v18.6Z"/><path class="cls-1" d="M2194.77,1150.46v18.9h18.51v-18c-5.94-2.22-12.36-1.17-18.75-.64Z"/><path class="cls-1" d="M2353.32,1171l18-1.76V1151h-19.24q.69,10.07,1.39,20.09Z"/><path class="cls-1" d="M2412.75,1151.38l-20.18-1.66v20.35h19.64l-.25.23q.32-9.55.62-19.1Z"/><path class="cls-1" d="M2649.62,1171l18-1.76V1151h-19.24q.69,10.07,1.39,20.09Z"/><path class="cls-1" d="M456.54,1149.64h18.57v-18.46H456.54Z"/><path class="cls-1" d="M1028.28,1149.48V1131.1H1009.9v18.38Z"/><path class="cls-1" d="M1286.63,1151.2l18-1.76v-18.16h-19.24c.46,6.71.92,13.39,1.39,20.09Z"/><path class="cls-1" d="M1484.36,1131.61l-20.19-1.64v19.59h18.08q1-9.12,1.92-18.14Z"/><path class="cls-1" d="M2076.19,1131.05v18.47h18.47v-18.47Z"/><path class="cls-1" d="M2135.62,1131.25v18.42h18.47v-18.42Z"/><path class="cls-1" d="M2194.53,1150.7v-19.38h-19.32v19.13h19.56Z"/><path class="cls-1" d="M2254,1130.65v18.95h18.52v-18c-5.94-2.22-12.38-1.14-18.78-.67Z"/><path class="cls-1" d="M2412.58,1151.2l18-1.76v-18.16h-19.24c.46,6.71.92,13.39,1.39,20.09Z"/><path class="cls-1" d="M2470.27,1149.48V1131.1h-18.38v18.38Z"/><path class="cls-1" d="M2530.34,1150.7v-18.79c-7-2.49-13.38-1.52-19.75-1l.23-.24v19.75h19.76Z"/><path class="cls-1" d="M2570.8,1131.61l-21.42-1.62c.64,8.16,1.15,14.79,1.68,21.43,0,0-.14-.13-.13-.11l17.81-2c.61-5.93,1.22-11.94,1.86-17.94Z"/><path class="cls-1" d="M2826.64,1150.7v-19.38h-19.32v19.13h19.56Z"/><path class="cls-1" d="M80.11,1129.83v-18.6H61.63v18.6Z"/><path class="cls-1" d="M159,1111.11H140.55v18.82H159Z"/><path class="cls-1" d="M1443.25,1248v-18.11h-18.82V1248Z"/><path class="cls-1" d="M299,1131.45l18-1.76v-18.17H297.74c.46,6.72.92,13.4,1.39,20.1Z"/><path class="cls-1" d="M792.05,1130.94v-19.38H772.73v19.14h19.55Z"/><path class="cls-1" d="M970,1110.88l-20,0v18.94h18.9C969.28,1123.56,969.65,1117.22,970,1110.88Z"/><path class="cls-1" d="M1089.1,1131.45l18-1.76v-18.17h-19.24c.47,6.72.92,13.4,1.39,20.1Z"/><path class="cls-1" d="M2787.9,953.66l18-1.75V933.74h-19.28c.48,6.73,1,13.41,1.44,20.09Z"/><path class="cls-1" d="M732.79,953.16V933.78H713.47v19.14H733Z"/><path class="cls-1" d="M2788.08,953.83l-20.18-1.64V972l19.45.65-.26.26q.39-9.63.79-19.25Z"/><path class="cls-1" d="M2352.56,972.92V953.54h-19.32v19.13h19.56Z"/><path class="cls-1" d="M2096.52,756.13l18-1.76V736.21h-19.24c.47,6.71.92,13.4,1.39,20.09Z"/><path class="cls-1" d="M1936.8,953.09h-18.46V971.9h18.46Z"/><path class="cls-1" d="M358.23,973.42l18-1.76v-18c-6.16-1.85-12.57-1.26-19-.37l.26-.25q.44,10.26.88,20.53Z"/><path class="cls-1" d="M2787.35,972.63v18.94h18.52v-18c-5.94-2.21-12.38-1.14-18.78-.66Z"/><path class="cls-1" d="M2549.23,874.12h-18.61v18.51h18.61Z"/><path class="cls-1" d="M2588.52,973h-18.18v18.53h18.18Z"/><path class="cls-1" d="M2530.56,972.63v18.94h18.52v-18c-5.95-2.21-12.38-1.14-18.78-.66Z"/><path class="cls-1" d="M1225.54,973h-18.18v18.53h18.18Z"/><path class="cls-1" d="M140.41,972.63v18.94h18.52v-18c-6-2.21-12.39-1.14-18.78-.66Z"/><path class="cls-1" d="M2234.8,1012.93l18-1.76v-18c-6.16-1.85-12.57-1.25-19-.37,0,0,.27-.25.26-.24q.43,10.26.88,20.53Z"/><path class="cls-1" d="M2155,1012.42V993h-19.31v19.14h19.55Z"/><path class="cls-1" d="M1937.74,1012.43V993h-19.32v19.14H1938Z"/><path class="cls-1" d="M1661,1012.57V992.72h-19v18.66l19.3.94Z"/><path class="cls-1" d="M1582.93,1012.93l18-1.76V993h-19.24c.46,6.72.92,13.4,1.39,20.1Z"/><path class="cls-1" d="M496.7,993.34l-19.54-1.62c-2.4,7.35-1.48,14.06-.85,20.74l-.38-.36,20,0-.21.27q.36-9.63.76-19.24Z"/><path class="cls-1" d="M318.92,993.34,298,992.82l.26-.25v18.8h18.59c.64-6.23,1.25-12.23,1.88-18.22Z"/><path class="cls-1" d="M2806,1012.4h-18.61v18.51H2806Z"/><path class="cls-1" d="M1148.38,894.4l18-1.75V874.47h-19.28c.49,6.74,1,13.42,1.45,20.1Z"/><path class="cls-1" d="M2550.85,1032.68l18-1.76v-18.16h-19.24c.46,6.71.92,13.39,1.39,20.09Z"/><path class="cls-1" d="M2530.33,1032.14v-19.43h-19.44v19.52l-.37-.38,20,0Z"/><path class="cls-1" d="M2313,1032.15v-19.36h-19.28v19.1h19.54Z"/><path class="cls-1" d="M2076.79,1032.67l18-1.74v-18.18h-19.28c.48,6.73,1,13.41,1.44,20.09Z"/><path class="cls-1" d="M1680.91,1032.15v-19c-7.12-2.06-13.52-1.51-19.94-.61l.26-.25v19.57h19.94Z"/><path class="cls-1" d="M1324.75,1031.12v-18.35H1306v18.35Z"/><path class="cls-1" d="M2115.72,656.56l-20,0v18.93h18.9C2115,669.24,2115.35,662.9,2115.72,656.56Z"/><path class="cls-1" d="M1247.33,1013.09l-20.2-1.64V1031h18.08q1-9.12,1.92-18.14Z"/><path class="cls-1" d="M733.41,894.26l18.13-1.52V874.51h-19.2c.45,6.63.89,13.32,1.32,20Z"/><path class="cls-1" d="M160.69,1032.68l18-1.76v-18.16H159.47c.46,6.71.92,13.39,1.39,20.09Z"/><path class="cls-1" d="M2748.4,1052.43l18-1.75V1032.5h-19.28c.49,6.74,1,13.42,1.45,20.1Z"/><path class="cls-1" d="M2727.65,1052.08v-19.85h-19v18.66l19.3.94Z"/><path class="cls-1" d="M2491.05,1031.89v19.77h19.76l-.27.21q0-10,0-20l.37.38-20.1-.08Z"/><path class="cls-1" d="M2313.27,1031.89v18.94h18.52v-18c-5.94-2.21-12.38-1.14-18.78-.66Z"/><path class="cls-1" d="M2077,1032.84l-20.19-1.64v19.59h18.08c.64-6.08,1.27-12.11,1.92-18.13Z"/><path class="cls-1" d="M1879.23,1052.43l19.39-.88-.24.23v-19.31H1878c.48,6.78.94,13.45,1.42,20.13Z"/><path class="cls-1" d="M1681.17,1031.89v18.94h18.52v-18c-6-2.21-12.39-1.14-18.79-.66Z"/><path class="cls-1" d="M753.29,1052.43l18-1.76v-18.16H752.07q.69,10.07,1.39,20.09Z"/><path class="cls-1" d="M574.94,1032.28v18.48h18.47v-18.48Z"/><path class="cls-1" d="M555.25,893.88c-.3-6.19-.59-12.38-.93-19.41H535.21v19.38Z"/><path class="cls-1" d="M2728.08,893.6h-20v20l19-1C2727.42,905.89,2727.75,899.74,2728.08,893.6Z"/><path class="cls-1" d="M535.71,1051H554v-18.81H535.71Z"/><path class="cls-1" d="M61.39,1031.89v18.94H79.91v-18c-5.94-2.21-12.38-1.14-18.78-.66Z"/><path class="cls-1" d="M2748.58,1052.6l-20.93-.53.26-.24q.47,10.29.93,20.57l-.12-.11c5.73-.61,11.46-1.24,17.8-1.94.61-5.94,1.22-11.95,1.86-17.94Z"/><path class="cls-1" d="M2590.36,1072.19l18-1.76v-18.17h-19.24c.46,6.72.92,13.4,1.39,20.1Z"/><path class="cls-1" d="M2214.28,1071.68V1052.3H2195v19.14h19.55Z"/><path class="cls-1" d="M1779.92,794.83h-20v20l19-1C1779.26,807.12,1779.59,801,1779.92,794.83Z"/><path class="cls-1" d="M1148.56,894.57l-20.2-1.64v20.35H1148l-.24.23c.2-6.39.39-12.76.61-19.13Z"/><path class="cls-1" d="M2017,1051.64q.38,10.38.75,20.76s-.14-.13-.13-.11l19.3-1-.24.22v-18.69c-7.18-2.34-13.57-1.47-19.94-.94Z"/><path class="cls-1" d="M1365.19,1052H1345.7v18.76l19.42.67-.27.22q0-10,0-20Z"/><path class="cls-1" d="M1207.08,1051.64v18.95h18.53v-18c-5.95-2.21-12.39-1.13-18.78-.66Z"/><path class="cls-1" d="M1029.29,1051.62l-20,.31.24-.24q-.14,10-.28,19.94l19-1C1028.64,1063.91,1029,1057.77,1029.29,1051.62Z"/><path class="cls-1" d="M910.52,1071.63l18.89-1V1051.6H910.5Q910.52,1061.62,910.52,1071.63Z"/><path class="cls-1" d="M436.49,1071.68q.28-9.71.6-19.41l.27.25L417.23,1051v19.74l19.49.71Z"/><path class="cls-1" d="M2926.36,1072.35l-20.19-1.64v19.59h18.08q.95-9.12,1.91-18.14Z"/><path class="cls-1" d="M2768.15,1091.93l18-1.74V1072h-19.27c.48,6.73,1,13.41,1.44,20.09Z"/><path class="cls-1" d="M1148.56,1072.35l-20.19-1.64v19.59h18.07q1-9.12,1.92-18.14Z"/><path class="cls-1" d="M713.25,893.61v18.95h18.49c.55-6.22,1.09-12.27,1.65-18.31a3.2,3.2,0,0,1,.27.25L713,893.87Z"/><path class="cls-1" d="M535.46,893.6h-20v20l19-1C534.8,905.89,535.13,899.74,535.46,893.6Z"/><path class="cls-1" d="M910.81,1091.42q0-10,0-20H891.34v19Z"/><path class="cls-1" d="M239.9,894.57,219,894.05l.26-.25c0,6.11,0,12.21,0,18.8h18.6c.63-6.23,1.25-12.23,1.88-18.22Z"/><path class="cls-1" d="M831.85,1071.73H812.36v18.78l19.42.62-.27.25,0-20Z"/><path class="cls-1" d="M101.63,1072.35l-20.19-1.64v19.59H99.52q.95-9.12,1.91-18.14Z"/><path class="cls-1" d="M2768.33,1092.1l-20.19-1.64v19.59h18.08c.63-6.08,1.26-12.11,1.91-18.13Z"/><path class="cls-1" d="M2668.83,1091.51v18.54h18.47v-18.54Z"/><path class="cls-1" d="M2629.07,1111.16v-19.41h-20.24c.5,6.78,1,13.47,1.49,20.16,0,0-.14-.13-.13-.11q9.58-.43,19.14-.9Z"/><path class="cls-1" d="M2747.87,893.88c-.3-6.19-.59-12.38-.93-19.41h-19.11v19.38Z"/><path class="cls-1" d="M2096.72,1092.1l-20.19-1.64v19.59h18.08c.63-6.08,1.26-12.11,1.91-18.13Z"/><path class="cls-1" d="M831.78,1091.13V1110h18.71c.27-6.23.54-12.58.82-18.92l.24.3-20,0Z"/><path class="cls-1" d="M2629.33,1110.9v18.95h18.52v-18c-5.95-2.22-12.39-1.14-18.78-.67Z"/><path class="cls-1" d="M2510.59,1130.94v-19.38h-19.32v19.14h19.55Z"/><path class="cls-1" d="M2352.6,1111.45v18.18h18.82v-18.18Z"/><path class="cls-1" d="M1602.15,913.37V933h19.92l-.24.23V914.57c-7.18-2.35-13.57-1.47-19.94-.94Z"/><path class="cls-1" d="M1543.43,933.91l18-1.76V914H1542.2q.69,10.07,1.39,20.09Z"/><path class="cls-1" d="M1978,1131.45l18-1.76v-18.17h-19.24c.47,6.72.92,13.4,1.39,20.1Z"/><path class="cls-1" d="M1563.38,1111.86l-20.19-1.64v19.58h18.07c.64-6.08,1.27-12.11,1.92-18.13Z"/><path class="cls-1" d="M515.8,1445.94h18.57v-18.46H515.8Z"/><path class="cls-1" d="M1128.11,1111.59v18.25h18.47v-18.25Z"/><path class="cls-1" d="M2886.66,795.64l18-1.76V775.72h-19.24c.46,6.71.92,13.39,1.39,20.09Z"/><path class="cls-1" d="M930.56,814.87c-.29-6.2-.59-12.4-.93-19.55-12.63-1.77-25.4.23-38.49-1.29V775.47l18.78-1.22c.29-13.24.57-26,.85-38.68H872.51c-2.08,7-2.71,63.42-.83,78.21l18.4,1.16c.32,6.36.62,12.15.94,18.54H910V814.87Z"/><path class="cls-1" d="M930.63,854.43H891.08v38.23h78.69V873.89l.3.24-39.82-.9V854.07Z"/><path class="cls-1" d="M989.88,834.69H949.62c.46-7.42.83-13.36,1.21-19.3l.17.18-20.75-1,.38,39.87-.38-.36c6.55-.07,13.11-.21,19.66-.18,6.38,0,12.76.23,19.22.36.36,7.52.65,13.7.94,19.88l-.3-.24h20l-.26.21,0-39.77Z"/><path class="cls-1" d="M970,992.75v18.53h38.21V992.75Z"/><path class="cls-1" d="M969.9,953.39v18.25h38.55V953.39Z"/><path class="cls-1" d="M1010.29,914.32a21.93,21.93,0,0,0-4.74-1.09c-11.47-.09-22.94-.05-35.19-.05v19.09h37.81c.64-6.09,1.27-12.12,1.92-18.13Z"/><path class="cls-1" d="M1009.33,1051.93v-19.38H990v19.14h19.56Z"/><path class="cls-1" d="M931.07,933.91l18-1.76V914H929.85q.69,10.07,1.39,20.09Z"/><path class="cls-1" d="M2333.76,795.8l-20.19-1.64v19.59h18.08c.63-6.08,1.26-12.11,1.91-18.13Z"/><path class="cls-1" d="M1385.4,795.63c5.51-.34,11-.92,16.53-1,13.42-.14,26.83,0,41,0V776.52c-6.6-2.06-43.38-2.62-58.7-.64.44,6.54.9,13.23,1.36,19.93Z"/><path class="cls-1" d="M1463.93,813.83h38.34V795.17l-19-1.1V775.6h-19.38Z"/><path class="cls-1" d="M2806.88,874.15V854.77h-19.31v19.14h19.55Z"/><path class="cls-1" d="M950.83,815.39l18-1.76V795.47H949.6q.69,10.06,1.39,20.09Z"/><path class="cls-1" d="M199.45,814.89V796.61c-7.57-2.39-42.55-3-58.82-1.21v38.13H159.2c.28-6.12.56-12.14.88-18.88h39.6Z"/><path class="cls-1" d="M2530.58,676.6q0-10,0-20l-39.77,0v38.69H2510V676.6Z"/><path class="cls-1" d="M2174.71,656.54l0,20,20,0c-.29-6.17-.58-12.34-.9-19C2187.57,655.25,2181.08,656.66,2174.71,656.54Z"/><path class="cls-1" d="M2728.08,696.06l-20,0v58.4h38.63c.37-6.15.76-12.51,1.15-18.87H2728c-.14-7.14-.38-13.52-.36-19.9C2727.65,709.13,2727.92,702.6,2728.08,696.06Z"/><path class="cls-1" d="M2767.62,735.86q0-10,0-20h-20v20Z"/><path class="cls-1" d="M2609.56,735.57l-20,0v18.94h18.9C2608.8,748.25,2609.18,741.91,2609.56,735.57Z"/><path class="cls-1" d="M752.74,636.8h-20v20l19-1C752.09,649.09,752.42,643,752.74,636.8Z"/><path class="cls-1" d="M792.25,636.8l-20,0v18.94h18.9C791.5,649.48,791.87,643.14,792.25,636.8Z"/><path class="cls-1" d="M219.13,656.54l0,20,20,0c-.29-6.17-.58-12.34-.9-19C232,655.25,225.5,656.66,219.13,656.54Z"/><path class="cls-1" d="M2767.58,636.8l-20,0q0,10,0,20l19-1C2766.93,649.09,2767.26,643,2767.58,636.8Z"/><path class="cls-1" d="M416.67,538q0,10,0,20l18.88-1V538Z"/><path class="cls-1" d="M1226.58,617.3l20,0c-.29-6.17-.58-12.34-.9-19-6.3-2.33-12.79-.92-19.16-1Z"/><path class="cls-1" d="M575,676.31l-20,0q0,10,0,20l20,0Q575,686.33,575,676.31Z"/><path class="cls-1" d="M2609.29,636.78q0,10,0,20l20,0c-.3-6.16-.59-12.33-.91-19C2622.14,635.49,2615.65,636.9,2609.29,636.78Z"/></g></g></svg>